<svg width="288" height="172" viewBox="0 0 288 172" fill="none" xmlns="http://www.w3.org/2000/svg">
<g clip-path="url(#clip0_303_2)">
<path d="M123.47 28.1223C153.332 18.9072 240.834 34.8469 266.761 54.2734C263.52 55.0205 261.205 55.7677 258.659 56.0168C254.029 56.764 249.399 57.2621 244.77 58.2583C240.834 59.2545 238.982 61.7451 239.908 64.7338C240.834 68.4696 243.381 68.7187 246.39 68.4696C258.196 67.2244 270.233 65.73 282.271 63.9866C287.827 63.2394 289.447 59.0055 286.669 53.5262C285.512 51.2847 283.66 49.2922 282.502 47.0507C274.169 32.8544 266.067 18.9072 257.965 4.96001C257.27 3.71472 256.807 2.22038 255.881 1.72226C254.029 0.726031 251.483 -0.519256 250.094 0.227917C248.474 0.975089 247.085 3.71472 247.085 5.70718C247.085 7.9487 248.242 10.1902 249.168 12.4317C252.409 18.6582 256.113 24.6355 259.354 30.862C260.279 32.6054 260.974 34.3488 262.131 36.8394C260.511 36.5903 259.816 36.5903 259.354 36.3412C216.76 17.6619 172.082 12.9298 126.71 14.9223C119.997 15.1714 113.284 16.4166 107.034 18.4091C99.1632 21.1487 91.2925 21.8959 83.1904 21.3978C67.2177 20.6506 51.7079 23.1412 36.8926 30.3639C28.559 34.3488 20.9199 39.828 14.4382 47.0507C0.085903 63.7376 -3.61793 83.164 3.55823 104.583C9.34545 121.519 20.2254 134.719 33.6518 145.179C59.1156 165.104 88.0517 173.323 119.534 171.828C121.849 171.828 123.932 171.081 126.016 170.583C128.794 170.085 130.414 168.342 130.183 165.104C129.951 161.866 127.636 160.87 125.09 160.87C123.701 160.87 122.081 161.119 120.692 161.119C96.1538 162.613 73.2364 156.138 51.7079 143.685C39.902 136.711 29.7165 127.496 21.6144 115.791C16.5216 108.07 12.5863 99.8509 11.4289 90.3867C9.57694 74.6961 14.6697 61.496 25.7812 51.5337C39.6705 38.5828 56.3377 34.0997 75.5513 33.1035C74.1624 35.345 73.2364 36.8394 72.3105 38.0846C71.616 39.0809 70.69 40.0771 69.7641 41.0733C57.0322 56.764 54.4858 75.9414 63.2824 94.3716C65.3658 98.6056 67.6807 102.84 70.4585 106.326C94.5334 135.964 124.858 146.176 160.045 138.704C175.786 135.217 187.129 125.006 191.296 107.323C194.074 95.6169 191.527 84.6584 185.972 74.447C180.879 65.2319 173.934 57.7602 165.832 51.2847C154.952 42.5677 142.683 36.0922 129.951 30.862C127.868 30.1148 126.016 29.1186 123.47 28.1223ZM141.294 130.734C124.164 129.489 106.339 123.511 93.1445 113.549C84.8109 107.323 77.6347 99.6018 73.0049 89.6395C66.5232 75.1942 67.9121 61.7451 77.8662 49.7903C82.033 44.8092 87.5887 40.8243 92.913 37.0884C95.2278 35.5941 98.7002 35.096 101.247 35.345C125.321 39.579 147.313 48.7941 165.6 66.4772C170.462 71.2093 174.629 77.1867 177.638 83.164C185.972 100.349 179.721 118.032 163.054 124.757C156.341 127.994 148.702 128.742 141.294 130.734Z" fill="#EEECEA"/>
</g>
<defs>
<clipPath id="clip0_303_2">
<rect width="288" height="172" fill="white" transform="matrix(-1 0 0 1 288 0)"/>
</clipPath>
</defs>
</svg>
