<svg width="333" height="255" viewBox="0 0 333 255" fill="none" xmlns="http://www.w3.org/2000/svg">
<path d="M308.123 281.921C324.853 268.591 334.083 248.561 332.543 228.961C330.363 201.311 308.913 181.681 281.133 170.031C270.963 165.761 260.283 162.291 250.763 157.011C227.783 144.261 228.853 124.311 218.353 104.861C190.083 52.4611 111.203 90.6711 62.6133 78.3911C30.9933 70.4011 8.85325 44.4411 7.74325 16.2711C7.66325 14.2511 7.65325 12.1211 6.48325 10.3611C5.67326 9.15105 4.38325 8.24106 3.07325 7.43106C-17.3768 -5.26894 -48.1167 -0.568937 -66.3567 13.0611C-86.5267 28.1411 -95.7567 51.3211 -101.217 73.8611C-105.577 91.8511 -108.077 110.561 -103.747 128.561C-92.0067 177.421 -34.7867 208.081 -10.9267 253.541C-5.77674 263.361 -2.21674 273.811 3.89326 283.211C19.4333 307.111 49.4633 321.211 79.4232 330.311C116.363 341.531 157.843 346.891 194.283 334.521C217.623 326.601 237.303 311.941 260.803 304.381C277.173 299.091 295.293 292.141 308.123 281.921Z" fill="url(#paint0_linear_15_3)"/>
<defs>
<linearGradient id="paint0_linear_15_3" x1="215.411" y1="78.6477" x2="72.7267" y2="182.604" gradientUnits="userSpaceOnUse">
<stop offset="0.1031" stop-color="#2F3E41"/>
<stop offset="0.3506" stop-color="#273132"/>
<stop offset="0.714" stop-color="#1E2422"/>
<stop offset="0.9948" stop-color="#1B1F1C"/>
</linearGradient>
</defs>
</svg>
