<svg class="animated" id="freepik_stories-personalization" xmlns="http://www.w3.org/2000/svg" viewBox="0 0 500 500" version="1.1" xmlns:xlink="http://www.w3.org/1999/xlink" xmlns:svgjs="http://svgjs.com/svgjs"><style>svg#freepik_stories-personalization:not(.animated) .animable {opacity: 0;}svg#freepik_stories-personalization.animated #freepik--background-complete--inject-1 {animation: 1s 1 forwards cubic-bezier(.36,-0.01,.5,1.38) slideLeft;animation-delay: 0s;}svg#freepik_stories-personalization.animated #freepik--Shadow--inject-1 {animation: 1s 1 forwards cubic-bezier(.36,-0.01,.5,1.38) slideUp;animation-delay: 0s;}svg#freepik_stories-personalization.animated #freepik--Painting--inject-1 {animation: 1s 1 forwards cubic-bezier(.36,-0.01,.5,1.38) slideDown;animation-delay: 0s;}svg#freepik_stories-personalization.animated #freepik--Window--inject-1 {animation: 1s 1 forwards cubic-bezier(.36,-0.01,.5,1.38) slideDown;animation-delay: 0s;}svg#freepik_stories-personalization.animated #freepik--Character--inject-1 {animation: 1s 1 forwards cubic-bezier(.36,-0.01,.5,1.38) zoomIn;animation-delay: 0s;}            @keyframes slideLeft {                0% {                    opacity: 0;                    transform: translateX(-30px);                }                100% {                    opacity: 1;                    transform: translateX(0);                }            }                    @keyframes slideUp {                0% {                    opacity: 0;                    transform: translateY(30px);                }                100% {                    opacity: 1;                    transform: inherit;                }            }                    @keyframes slideDown {                0% {                    opacity: 0;                    transform: translateY(-30px);                }                100% {                    opacity: 1;                    transform: translateY(0);                }            }                    @keyframes zoomIn {                0% {                    opacity: 0;                    transform: scale(0.5);                }                100% {                    opacity: 1;                    transform: scale(1);                }            }        </style><g id="freepik--background-complete--inject-1" class="animable" style="transform-origin: 250px 228.23px;"><rect y="382.4" width="500" height="0.25" style="fill: rgb(235, 235, 235); transform-origin: 250px 382.525px;" id="el020o7z2a1tyx" class="animable"></rect><rect x="52.46" y="398.49" width="33.12" height="0.25" style="fill: rgb(235, 235, 235); transform-origin: 69.02px 398.615px;" id="el8tj5so44gt" class="animable"></rect><rect x="135.33" y="401.21" width="44.5" height="0.25" style="fill: rgb(235, 235, 235); transform-origin: 157.58px 401.335px;" id="elu82hn5c60t" class="animable"></rect><rect x="86.58" y="389.21" width="70.42" height="0.25" style="fill: rgb(235, 235, 235); transform-origin: 121.79px 389.335px;" id="elg4f5xtawgo" class="animable"></rect><rect x="437.21" y="390.89" width="12.69" height="0.25" style="fill: rgb(235, 235, 235); transform-origin: 443.555px 391.015px;" id="elund447swndj" class="animable"></rect><rect x="391.47" y="390.89" width="36.83" height="0.25" style="fill: rgb(235, 235, 235); transform-origin: 409.885px 391.015px;" id="elzgbqpknwq0h" class="animable"></rect><rect x="277.21" y="395.11" width="31.12" height="0.25" style="fill: rgb(235, 235, 235); transform-origin: 292.77px 395.235px;" id="elk1fl2mif3tg" class="animable"></rect><path d="M237,55H43.91a5.71,5.71,0,0,0-5.7,5.66V332.09a5.71,5.71,0,0,0,5.7,5.71H237a5.71,5.71,0,0,0,5.71-5.71V60.71A5.71,5.71,0,0,0,237,55Zm5.46,277.09a5.48,5.48,0,0,1-5.46,5.46H43.91a5.46,5.46,0,0,1-5.45-5.46V60.66a5.46,5.46,0,0,1,5.45-5.46H237a5.48,5.48,0,0,1,5.46,5.46Z" style="fill: rgb(235, 235, 235); transform-origin: 140.46px 196.4px;" id="elk46acetf5fg" class="animable"></path><path d="M453.31,55H260.21a5.72,5.72,0,0,0-5.71,5.66V332.09a5.73,5.73,0,0,0,5.71,5.71h193.1a5.7,5.7,0,0,0,5.69-5.71V60.66A5.71,5.71,0,0,0,453.31,55Zm5.46,277.09a5.48,5.48,0,0,1-5.46,5.46H260.21a5.48,5.48,0,0,1-5.46-5.46V60.66a5.48,5.48,0,0,1,5.46-5.46h193.1a5.48,5.48,0,0,1,5.46,5.46Z" style="fill: rgb(235, 235, 235); transform-origin: 356.75px 196.4px;" id="elrqp4kub3g1" class="animable"></path><path d="M67.89,318.67a4.61,4.61,0,1,1-4.61-4.61A4.6,4.6,0,0,1,67.89,318.67Z" style="fill: rgb(235, 235, 235); transform-origin: 63.28px 318.67px;" id="elyusg3zb6lt" class="animable"></path><rect x="61.67" y="322.99" width="3.63" height="59.66" style="fill: rgb(235, 235, 235); transform-origin: 63.485px 352.82px;" id="elvxbejwcj69" class="animable"></rect><path d="M194.23,318.67a4.61,4.61,0,1,1-4.61-4.61A4.6,4.6,0,0,1,194.23,318.67Z" style="fill: rgb(235, 235, 235); transform-origin: 189.62px 318.67px;" id="ele99nci2i2nu" class="animable"></path><rect x="188.01" y="322.99" width="3.63" height="59.66" style="fill: rgb(235, 235, 235); transform-origin: 189.825px 352.82px;" id="elur7kww3qy1p" class="animable"></rect><path d="M188,323s-21.1,48.41-62.27,44.92S65.3,323,65.3,323l0,0c1,.85,33.26,28.21,64.42,29.81,27.94,1.43,56.39-27.86,58.18-29.72Z" style="fill: rgb(224, 224, 224); transform-origin: 126.65px 345.55px;" id="elugkmkm12cqh" class="animable"></path><path d="M303.64,323v0c-.58,1.42-19.87,48.33-57,44.89S191.92,324.28,191.37,323v0s30,28.2,59,29.83C276.74,354.3,303.64,323,303.64,323Z" style="fill: rgb(224, 224, 224); transform-origin: 247.505px 345.535px;" id="elwr7fgnuv65" class="animable"></path><path d="M434.29,323c-.06.14-.31.67-.75,1.54-4.28,8.28-26.17,46.46-64.92,43.35C325.17,364.42,304.85,323,304.85,323s1,.81,2.82,2.18c8.9,6.64,37.45,26.3,65.17,27.65C402.84,354.28,433.36,323.94,434.29,323Z" style="fill: rgb(224, 224, 224); transform-origin: 369.57px 345.535px;" id="elseie10dh2x" class="animable"></path><path d="M308.25,318.67a4.62,4.62,0,1,1-4.61-4.61A4.61,4.61,0,0,1,308.25,318.67Z" style="fill: rgb(235, 235, 235); transform-origin: 303.63px 318.68px;" id="el5acd17xkkmh" class="animable"></path><rect x="302.02" y="322.99" width="3.63" height="59.66" style="fill: rgb(235, 235, 235); transform-origin: 303.835px 352.82px;" id="el6kuejyn8i2n" class="animable"></rect><path d="M440.53,318.67a4.61,4.61,0,1,1-4.61-4.61A4.6,4.6,0,0,1,440.53,318.67Z" style="fill: rgb(235, 235, 235); transform-origin: 435.92px 318.67px;" id="el6bpj2vlykf" class="animable"></path><rect x="434.31" y="322.99" width="3.63" height="59.66" style="fill: rgb(235, 235, 235); transform-origin: 436.125px 352.82px;" id="el3iunn6elyqf" class="animable"></rect><path d="M434.29,323c-.06.14-.31.67-.75,1.54-7.53,9.72-30.7,36.12-60,35.59-30.57-.55-58.3-27.1-65.87-35,8.9,6.64,37.45,26.3,65.17,27.65C402.84,354.28,433.36,323.94,434.29,323Z" style="fill: rgb(230, 230, 230); transform-origin: 370.98px 341.569px;" id="elh8e4b1wdfv5" class="animable"></path><path d="M303.64,323v0c-.63,1.13-21,37.88-56.13,37.14s-55.5-36-56.13-37.14v0s30,28.2,59,29.83C276.74,354.3,303.64,323,303.64,323Z" style="fill: rgb(230, 230, 230); transform-origin: 247.51px 341.576px;" id="elupc18rtypzp" class="animable"></path><path d="M187.92,323.1c-1.83,2.15-31.51,36.67-59.95,37.06C99,360.55,66.22,324,65.32,323c1,.85,33.26,28.21,64.42,29.81C157.68,354.25,186.13,325,187.92,323.1Z" style="fill: rgb(230, 230, 230); transform-origin: 126.62px 341.582px;" id="el5l0xcmnfwyx" class="animable"></path><rect x="416.2" y="139.7" width="61.88" height="108.83" style="fill: rgb(224, 224, 224); transform-origin: 447.14px 194.115px;" id="elge453fi814r" class="animable"></rect><rect x="411.45" y="139.7" width="61.88" height="108.83" style="fill: rgb(245, 245, 245); transform-origin: 442.39px 194.115px;" id="ele2dwfwxra7" class="animable"></rect><rect x="418.73" y="146.24" width="47.31" height="95.01" style="fill: rgb(230, 230, 230); transform-origin: 442.385px 193.745px;" id="el93i7dxjwzq4" class="animable"></rect><polygon points="466.05 146.98 473.33 139.7 411.45 139.7 418.73 146.98 466.05 146.98" style="fill: rgb(240, 240, 240); transform-origin: 442.39px 143.34px;" id="eljf5hi9k84uf" class="animable"></polygon><rect x="418.73" y="193.93" width="1.85" height="47.31" style="fill: rgb(224, 224, 224); transform-origin: 419.655px 217.585px;" id="elcwejjncxgdh" class="animable"></rect><polygon points="473.33 248.53 466.05 241.24 418.73 241.24 411.45 248.53 473.33 248.53" style="fill: rgb(240, 240, 240); transform-origin: 442.39px 244.885px;" id="elei3m40kktol" class="animable"></polygon><path d="M431.91,157.14c-2.78,4.28.08,9.5,3.27,12.6,2.32,2.26,5.08,4,7.57,6.1A35.22,35.22,0,0,1,453,189.93a12.62,12.62,0,0,1,.45,8.39c-1.26,3.73-4.57,6.2-6.49,9.54a36.58,36.58,0,0,0-4.39,13.1c-.45,3.33-.24,7.16,2.28,9.38" style="fill: none; stroke: rgb(255, 255, 255); stroke-linecap: round; stroke-linejoin: round; stroke-width: 11px; transform-origin: 442.373px 193.74px;" id="el51rews2szzt" class="animable"></path><rect x="45.12" y="163.17" width="78.98" height="78.98" style="fill: rgb(224, 224, 224); transform-origin: 84.61px 202.66px;" id="elxdwslligvq" class="animable"></rect><rect x="39.06" y="163.17" width="78.98" height="78.98" style="fill: rgb(245, 245, 245); transform-origin: 78.55px 202.66px;" id="el7zgql6638sl" class="animable"></rect><rect x="48.36" y="172.46" width="60.4" height="60.4" style="fill: rgb(230, 230, 230); transform-origin: 78.56px 202.66px;" id="elsqcr5y8yy2" class="animable"></rect><polygon points="108.75 172.46 118.05 163.16 39.06 163.16 48.35 172.46 108.75 172.46" style="fill: rgb(240, 240, 240); transform-origin: 78.555px 167.81px;" id="elxdyoyqbytht" class="animable"></polygon><rect x="48.36" y="172.46" width="2.36" height="60.4" style="fill: rgb(224, 224, 224); transform-origin: 49.54px 202.66px;" id="elna1j3e3z11a" class="animable"></rect><path d="M87.39,186a9.38,9.38,0,0,0-1.6.87c-2.76,1.89-5.49,3.88-8.72,4.88-3.54,1.09-7.31,1-10.74,2.52a11.1,11.1,0,0,0-6.21,6.82c-2.8,9.07,4.59,17.82,13,20.32,9.6,2.86,19.33-3.84,22.81-12.75a49,49,0,0,0,2.44-11.3c.38-2.72,2.21-5.3,1.09-8.06C97.62,184.81,91.47,184.27,87.39,186Z" style="fill: rgb(240, 240, 240); transform-origin: 79.6674px 203.584px;" id="el57t50fy0uz2" class="animable"></path><path d="M67.27,185.6c2.07,5,11.06,3.68,12.23-1.34,1.12-4.87-4-7.43-8.07-6.07C68.47,179.19,65.94,182.38,67.27,185.6Z" style="fill: rgb(240, 240, 240); transform-origin: 73.2814px 183.29px;" id="el0jg8j8xvqp76" class="animable"></path><polygon points="118.05 242.15 108.75 232.85 48.35 232.85 39.06 242.15 118.05 242.15" style="fill: rgb(240, 240, 240); transform-origin: 78.555px 237.5px;" id="el5gmkey156g" class="animable"></polygon><rect x="43.24" y="250.48" width="22.06" height="12.54" style="fill: rgb(250, 250, 250); transform-origin: 54.27px 256.75px;" id="el8k0nnqcil0n" class="animable"></rect></g><g id="freepik--Shadow--inject-1" class="animable" style="transform-origin: 234.19px 417.255px;"><g id="freepik--Shadow--inject-1--inject-1" class="animable" style="transform-origin: 234.19px 416.24px;"><ellipse id="freepik--path--inject-1--inject-1" cx="234.19" cy="416.24" rx="193.89" ry="11.32" style="fill: rgb(245, 245, 245); transform-origin: 234.19px 416.24px;" class="animable"></ellipse></g><ellipse cx="260.45" cy="416.95" rx="51.09" ry="7.12" style="fill: rgb(255, 150, 64); transform-origin: 260.45px 416.95px;" id="elzjptdnd7ji" class="animable"></ellipse><ellipse cx="289.23" cy="424.99" rx="16.06" ry="4.6" style="fill: rgb(255, 150, 64); transform-origin: 289.23px 424.99px;" id="elxh4fzyxf7vn" class="animable"></ellipse><ellipse cx="316.96" cy="422.37" rx="3.27" ry="0.83" style="fill: rgb(255, 150, 64); transform-origin: 316.96px 422.37px;" id="elrm52j4wh2p" class="animable"></ellipse></g><g id="freepik--Painting--inject-1" class="animable" style="transform-origin: 265.405px 204.11px;"><polygon points="395.66 299.83 129.62 299.83 140.85 287.92 384.44 287.92 395.66 299.83" style="fill: rgb(240, 240, 240); transform-origin: 262.64px 293.875px;" id="elt3bna4fq4p" class="animable"></polygon><rect x="135.15" y="108.39" width="266.04" height="191.44" style="fill: rgb(224, 224, 224); transform-origin: 268.17px 204.11px;" id="elluhd4yavllq" class="animable"></rect><rect x="129.62" y="108.39" width="266.04" height="191.44" style="fill: rgb(245, 245, 245); transform-origin: 262.64px 204.11px;" id="elrmavihkr5pn" class="animable"></rect><rect x="140.84" y="116.47" width="243.59" height="171.45" style="fill: rgb(224, 224, 224); transform-origin: 262.635px 202.195px;" id="elnw8atdw1yng" class="animable"></rect><rect x="151.61" y="124.11" width="219.98" height="156.17" style="fill: rgb(255, 150, 64); transform-origin: 261.6px 202.195px;" id="el5olhx4f0jrw" class="animable"></rect><g id="el09nrf588fd2"><rect x="151.61" y="124.11" width="219.98" height="156.17" style="opacity: 0.1; transform-origin: 261.6px 202.195px;" class="animable"></rect></g><polygon points="395.66 108.39 384.44 116.47 140.85 116.47 129.62 108.39 395.66 108.39" style="fill: rgb(240, 240, 240); transform-origin: 262.64px 112.43px;" id="el6wzfiiw2no" class="animable"></polygon><g id="el839b0h0y61"><path d="M221.91,139A31.8,31.8,0,1,1,162,124.11h56.24A31.61,31.61,0,0,1,221.91,139Z" style="opacity: 0.5; transform-origin: 190.11px 147.444px;" class="animable"></path></g><g id="elgvh4nwqbp5"><circle cx="297.25" cy="214.81" r="32.46" style="fill: rgb(250, 250, 250); opacity: 0.5; transform-origin: 297.25px 214.81px; transform: rotate(-80.69deg);" class="animable"></circle></g><g id="eloy3tdwogw5d"><path d="M371.59,141V251.34a53.64,53.64,0,0,1-5.4.27,55.46,55.46,0,1,1,0-110.92A53.64,53.64,0,0,1,371.59,141Z" style="opacity: 0.5; transform-origin: 341.16px 196.15px;" class="animable"></path></g></g><g id="freepik--Window--inject-1" class="animable" style="transform-origin: 252.47px 191.81px;"><path d="M403.72,112.4V285.23a26.38,26.38,0,0,1-26.39,26.39h-254a26.39,26.39,0,0,1-26.39-26.39V112.4A26.39,26.39,0,0,1,123.33,86h254a26.39,26.39,0,0,1,26.39,26.39Z" style="fill: none; stroke: rgb(255, 150, 64); stroke-miterlimit: 10; stroke-width: 0.865279px; transform-origin: 250.33px 198.81px;" id="el8ercy884ksn" class="animable"></path><path d="M399.16,97.57H101.5A26.35,26.35,0,0,1,123.33,86h254A26.34,26.34,0,0,1,399.16,97.57Z" style="fill: rgb(255, 150, 64); stroke: rgb(255, 150, 64); stroke-miterlimit: 10; stroke-width: 0.865279px; transform-origin: 250.33px 91.785px;" id="elpypzcjhcz4c" class="animable"></path><circle cx="132.35" cy="91.79" r="1.7" style="fill: rgb(255, 255, 255); transform-origin: 132.35px 91.79px;" id="elk9pogh8p46i" class="animable"></circle><circle cx="141.19" cy="91.79" r="1.7" style="fill: rgb(255, 255, 255); transform-origin: 141.19px 91.79px;" id="el5z0kaop4u2n" class="animable"></circle><circle cx="150.04" cy="91.79" r="1.7" style="fill: rgb(255, 255, 255); transform-origin: 150.04px 91.79px;" id="eljuita4lbgi9" class="animable"></circle><rect x="349.84" y="63.77" width="38.15" height="103.73" style="fill: rgb(224, 224, 224); transform-origin: 368.915px 115.635px;" id="elslfsueglqc" class="animable"></rect><rect x="344.53" y="64.13" width="38.15" height="103.05" style="fill: rgb(250, 250, 250); stroke: rgb(255, 150, 64); stroke-miterlimit: 10; stroke-width: 0.865279px; transform-origin: 363.605px 115.655px;" id="eljuxleaez67d" class="animable"></rect><rect x="350.05" y="134.01" width="27.1" height="27.1" style="fill: rgb(255, 150, 64); transform-origin: 363.6px 147.56px;" id="elvm83i7p2egl" class="animable"></rect><rect x="350.05" y="69.01" width="27.1" height="27.1" style="fill: rgb(255, 150, 64); transform-origin: 363.6px 82.56px;" id="el0p01tsat5ns" class="animable"></rect><g id="el2a28xz1501c"><rect x="350.05" y="69.01" width="27.1" height="27.1" style="opacity: 0.5; transform-origin: 363.6px 82.56px;" class="animable"></rect></g><rect x="350.05" y="101.53" width="27.1" height="27.1" style="fill: rgb(255, 150, 64); transform-origin: 363.6px 115.08px;" id="elwnstaqbjzr" class="animable"></rect><g id="elnp2alzixmoc"><rect x="350.05" y="101.53" width="27.1" height="27.1" style="opacity: 0.2; transform-origin: 363.6px 115.08px;" class="animable"></rect></g><line x1="310.69" y1="319.85" x2="320.41" y2="319.85" style="fill: none; stroke: rgb(255, 150, 64); stroke-miterlimit: 10; stroke-width: 0.865279px; transform-origin: 315.55px 319.85px;" id="eltyklp31880e" class="animable"></line><line x1="256.76" y1="319.85" x2="303.03" y2="319.85" style="fill: none; stroke: rgb(255, 150, 64); stroke-miterlimit: 10; stroke-width: 0.865279px; transform-origin: 279.895px 319.85px;" id="ellqmq6apvw8i" class="animable"></line><line x1="102.8" y1="128.96" x2="102.8" y2="120.03" style="fill: none; stroke: rgb(255, 150, 64); stroke-miterlimit: 10; stroke-width: 0.865279px; transform-origin: 102.8px 124.495px;" id="elvs84ol5lgf" class="animable"></line><line x1="102.8" y1="171.57" x2="102.8" y2="139.88" style="fill: none; stroke: rgb(255, 150, 64); stroke-miterlimit: 10; stroke-width: 0.865279px; transform-origin: 102.8px 155.725px;" id="eljvidvh4ysw" class="animable"></line><rect x="288.59" y="253.65" width="119.41" height="43.63" style="fill: rgb(224, 224, 224); transform-origin: 348.295px 275.465px;" id="eltmv5eyphv5" class="animable"></rect><rect x="284.65" y="254.31" width="119.05" height="42.58" style="fill: rgb(250, 250, 250); stroke: rgb(255, 150, 64); stroke-miterlimit: 10; stroke-width: 0.865279px; transform-origin: 344.175px 275.6px;" id="elgkt2lq0r11w" class="animable"></rect><rect x="291.22" y="259.61" width="31.98" height="31.98" style="fill: rgb(255, 255, 255); stroke: rgb(255, 150, 64); stroke-miterlimit: 10; stroke-width: 0.865279px; transform-origin: 307.21px 275.6px;" id="el3wktfn8b9eq" class="animable"></rect><rect x="328.53" y="259.61" width="31.98" height="31.98" style="fill: rgb(255, 255, 255); stroke: rgb(255, 150, 64); stroke-miterlimit: 10; stroke-width: 0.865279px; transform-origin: 344.52px 275.6px;" id="ely9ncdr43deq" class="animable"></rect><rect x="365.85" y="259.61" width="31.98" height="31.98" style="fill: rgb(255, 255, 255); stroke: rgb(255, 150, 64); stroke-miterlimit: 10; stroke-width: 0.865279px; transform-origin: 381.84px 275.6px;" id="elwriabjolex" class="animable"></rect><g id="el5nh3nyd74x"><circle cx="307.21" cy="275.46" r="7.85" style="fill: rgb(255, 150, 64); transform-origin: 307.21px 275.46px; transform: rotate(-45deg);" class="animable"></circle></g><rect x="336.53" y="267.61" width="15.98" height="15.98" style="fill: rgb(255, 150, 64); transform-origin: 344.52px 275.6px;" id="el3zdvk9lp8cp" class="animable"></rect><polygon points="389.76 283.45 373.92 283.45 381.84 267.61 389.76 283.45" style="fill: rgb(255, 150, 64); transform-origin: 381.84px 275.53px;" id="eleee00a670d6" class="animable"></polygon></g><g id="freepik--Character--inject-1" class="animable" style="transform-origin: 185.06px 284.105px;"><path d="M120.28,214.44c-1.19,2.6-2.44,5.47-3.53,8.25s-2.2,5.65-3.17,8.5a107.53,107.53,0,0,0-4.48,17.28l-.28,1.84a3,3,0,0,0,.09.94,9.85,9.85,0,0,0,1.38,2.91,36.76,36.76,0,0,0,5.56,6.26,84.46,84.46,0,0,0,6.91,5.77c2.41,1.86,4.93,3.66,7.43,5.36l-2.34,4.4A89.12,89.12,0,0,1,111,266.29a40.8,40.8,0,0,1-7.51-7.11,17.84,17.84,0,0,1-3-5.35,12,12,0,0,1-.6-3.75v-1.57l.12-1.25a97.83,97.83,0,0,1,4.1-19.21c1-3.08,2-6.15,3.2-9.14s2.42-5.92,3.93-9Z" style="fill: rgb(229, 138, 123); transform-origin: 115.04px 242.93px;" id="eli35cljbfh4" class="animable"></path><path d="M216,223.41a24.93,24.93,0,0,1-5,10,23.84,23.84,0,0,1-6.94,5.76c-5.05,2.92-10,5.92-15.12,8.76-10.08,5.8-20.25,11.38-30.47,16.86s-20.59,10.67-31,15.73-21.06,9.88-31.73,14.15c-4.64,1.51-9.27-1.33-10.33-6.35a10.59,10.59,0,0,1,3.17-9.86c9.27-7.64,18.82-14.59,28.43-21.48s19.23-13.52,29.14-19.91,19.72-12.69,29.68-18.76c5-3.08,10-6,15-9a19.71,19.71,0,0,1,18.08-2.07C214.69,209.53,217.77,216.5,216,223.41Z" style="fill: rgb(255, 150, 64); transform-origin: 150.849px 250.505px;" id="elagev5c87qq" class="animable"></path><g id="elfefa5cpoehp"><path d="M216,223.41a24.93,24.93,0,0,1-5,10,23.84,23.84,0,0,1-6.94,5.76c-5.05,2.92-10,5.92-15.12,8.76-10.08,5.8-20.25,11.38-30.47,16.86s-20.59,10.67-31,15.73-21.06,9.88-31.73,14.15c-4.64,1.51-9.27-1.33-10.33-6.35a10.59,10.59,0,0,1,3.17-9.86c9.27-7.64,18.82-14.59,28.43-21.48s19.23-13.52,29.14-19.91,19.72-12.69,29.68-18.76c5-3.08,10-6,15-9a19.71,19.71,0,0,1,18.08-2.07C214.69,209.53,217.77,216.5,216,223.41Z" style="opacity: 0.3; transform-origin: 150.849px 250.505px;" class="animable"></path></g><path d="M259.66,214.81c-13.82,13.76-30,15.17-39.76-6.9-11.72-26.43,15.78-38.37,29.1-36.1,7.19,1.23,15.05,1.89,21.86-.62,5.82-2.13,10.87-6.56,14.06-14.9C282.5,180.36,272,202.51,259.66,214.81Z" style="fill: rgb(255, 150, 64); transform-origin: 250.99px 190.583px;" id="el2rem58mi12w" class="animable"></path><g id="eltbbnbz20inc"><path d="M259.66,214.81c-13.82,13.76-30,15.17-39.76-6.9-11.72-26.43,15.78-38.37,29.1-36.1,7.19,1.23,15.05,1.89,21.86-.62,5.82-2.13,10.87-6.56,14.06-14.9C282.5,180.36,272,202.51,259.66,214.81Z" style="fill: rgb(255, 255, 255); opacity: 0.8; transform-origin: 250.99px 190.583px;" class="animable"></path></g><path d="M259.66,214.81a11.13,11.13,0,0,1-2.35-1.58c-3.52-3.14-4.4-9.21-1.15-12.64-3.62-1.31-5.57-5.63-4.91-9.41s3.48-6.94,6.83-8.84c2.24-1.27,4.73-2.06,6.93-3.42a13.35,13.35,0,0,0,5.85-7.73c5.82-2.13,10.87-6.56,14.06-14.9C282.5,180.36,272,202.51,259.66,214.81Z" style="fill: rgb(255, 150, 64); transform-origin: 268.021px 185.55px;" id="el9r0yt72k8vc" class="animable"></path><path d="M247.38,198.08a1.23,1.23,0,0,1-1.55.81,1.24,1.24,0,1,1,.75-2.36A1.23,1.23,0,0,1,247.38,198.08Z" style="fill: rgb(255, 150, 64); transform-origin: 246.17px 197.699px;" id="elk37hjzxr7hm" class="animable"></path><path d="M248.46,190.61a4,4,0,1,1-2.61-5A4,4,0,0,1,248.46,190.61Z" style="fill: rgb(255, 150, 64); transform-origin: 244.64px 189.423px;" id="el2pdrikifpuv" class="animable"></path><g id="eldszp9lpior9"><path d="M259.66,214.81a11.13,11.13,0,0,1-2.35-1.58c-3.52-3.14-4.4-9.21-1.15-12.64-3.62-1.31-5.57-5.63-4.91-9.41s3.48-6.94,6.83-8.84c2.24-1.27,4.73-2.06,6.93-3.42a13.35,13.35,0,0,0,5.85-7.73c5.82-2.13,10.87-6.56,14.06-14.9C282.5,180.36,272,202.51,259.66,214.81Z" style="opacity: 0.2; transform-origin: 268.021px 185.55px;" class="animable"></path></g><g id="eleesd58cvp7"><path d="M247.38,198.08a1.23,1.23,0,0,1-1.55.81,1.24,1.24,0,1,1,.75-2.36A1.23,1.23,0,0,1,247.38,198.08Z" style="opacity: 0.2; transform-origin: 246.17px 197.699px;" class="animable"></path></g><g id="elk3it3nswcx"><path d="M248.46,190.61a4,4,0,1,1-2.61-5A4,4,0,0,1,248.46,190.61Z" style="opacity: 0.2; transform-origin: 244.64px 189.423px;" class="animable"></path></g><path d="M121.75,259s-7.58,21.17-3.33,34,12.8,32.49,12.38,38.48S99,380.64,96.44,396L106.85,399s31.84-38.48,39.44-50.45,8-22.23,2.89-37.19c0,0,12,13.25,12.83,17.95s-10.26,49.17-6,66.7l13.68,3s11.12-49.59,14.11-59.43,0-25.22-4.7-34.63-17.47-46-17.47-46Z" style="fill: rgb(38, 50, 56); transform-origin: 140.719px 328.98px;" id="eleinevv4y7cq" class="animable"></path><polygon points="104.09 401.32 100.25 409.8 92.34 409.46 96.45 399.51 104.09 401.32" style="fill: rgb(255, 139, 123); transform-origin: 98.215px 404.655px;" id="elj1t75m624h8" class="animable"></polygon><polygon points="166.96 402.62 165.53 409.8 157.87 409.8 159.21 399.51 166.96 402.62" style="fill: rgb(255, 139, 123); transform-origin: 162.415px 404.655px;" id="elfy1uf4u1byi" class="animable"></polygon><path d="M168,409.8s1.73-4.93,3.05-4.32-2.07,4.94-2.07,4.94,3.82-2.92,4.35-1.69S168,409.8,168,409.8Z" style="fill: none; stroke: rgb(255, 150, 64); stroke-miterlimit: 10; transform-origin: 170.682px 407.924px;" id="elcdfk86stul5" class="animable"></path><path d="M103.1,409.8s1-4.4,2.11-3.88S103.1,409.8,103.1,409.8Z" style="fill: none; stroke: rgb(255, 150, 64); stroke-miterlimit: 10; transform-origin: 104.271px 407.839px;" id="el5gxf20n2gen" class="animable"></path><path d="M103.1,410.42s5.62-2.68,6-1.26S103.1,410.42,103.1,410.42Z" style="fill: none; stroke: rgb(255, 150, 64); stroke-miterlimit: 10; transform-origin: 106.108px 409.585px;" id="el5lndmhbe6hx" class="animable"></path><path d="M91,418.34s-1.49,0-1.57-1.32S91,409.16,91,409.16h10.92s4.8,4.13,7.36,4.59,4.38.54,4.47,1.78-2,2.81-2,2.81Z" style="fill: rgb(38, 50, 56); transform-origin: 101.59px 413.75px;" id="el9phybpu7c0i" class="animable"></path><path d="M156.78,409.16s-2.19,7.9-1.84,8.78,28.77,0,28.77,0a3,3,0,0,0,1.3-2.54c-.16-1.58-8.84-.88-11.91-2.55s-6.15-3.69-6.15-3.69Z" style="fill: rgb(38, 50, 56); transform-origin: 169.956px 413.746px;" id="els39epv3aj4s" class="animable"></path><polygon points="110.76 398.05 93.59 394.54 92.34 398.97 107.94 403.47 110.76 398.05" style="fill: rgb(255, 150, 64); transform-origin: 101.55px 399.005px;" id="elqzymsiukqwj" class="animable"></polygon><path d="M171.75,397.8c-.27-.18-17.2-2.35-17.2-2.35l1.09,5.16,16.11,2.86Z" style="fill: rgb(255, 150, 64); transform-origin: 163.15px 399.46px;" id="elrghv9ci5et" class="animable"></path><g id="el8zva9eee60v"><polygon points="149.18 311.33 139.31 301.52 151.3 318.58 149.18 311.33" style="opacity: 0.3; transform-origin: 145.305px 310.05px;" class="animable"></polygon></g><path d="M157.87,167.56a25.61,25.61,0,0,0,2,5,2,2,0,0,1-2,.64Z" style="fill: rgb(223, 87, 83); transform-origin: 158.87px 170.409px;" id="eloh9rn6ixn5s" class="animable"></path><path d="M157.85,164.75c.52,0,.94.65.94,1.44s-.42,1.44-.94,1.44-.94-.64-.94-1.44S157.33,164.75,157.85,164.75Z" style="fill: rgb(38, 50, 56); transform-origin: 157.85px 166.19px;" id="elxbvqzyuj2" class="animable"></path><path d="M133.42,176.75c1.14,5.82,2.28,16.5-1.81,20.4,0,0,1.61,5.91,12.44,5.91,11.91,0,5.68-5.91,5.68-5.91-6.5-1.56-6.33-6.38-5.19-10.91Z" style="fill: rgb(229, 138, 123); transform-origin: 141.484px 189.905px;" id="ellf2kv9u5ic" class="animable"></path><path d="M130.25,163.47c.6,9.73.65,13.87,5.56,18.86,7.4,7.52,19.22,4.66,21.54-5,2.09-8.76,2-21.34-7.56-25.21-6.79-2.8-15.77-1.41-18.57,5.38A13.32,13.32,0,0,0,130.25,163.47Z" style="fill: rgb(229, 138, 123); transform-origin: 144.334px 168.682px;" id="elrn2knvfh13" class="animable"></path><path d="M128.17,197.81h0A2.23,2.23,0,0,1,130,195.3c4.4-.72,14.42-2.2,19.46-1.5,3.75.53,4.73,2.71,4.89,4.5a2.2,2.2,0,0,1-2,2.37H152l-21.77-1A2.22,2.22,0,0,1,128.17,197.81Z" style="fill: rgb(255, 150, 64); transform-origin: 141.253px 197.143px;" id="el6lbgs8j9p53" class="animable"></path><g id="ell85rahzh1fg"><path d="M128.17,197.81h0A2.23,2.23,0,0,1,130,195.3c4.4-.72,14.42-2.2,19.46-1.5,3.75.53,4.73,2.71,4.89,4.5a2.2,2.2,0,0,1-2,2.37H152l-21.77-1A2.22,2.22,0,0,1,128.17,197.81Z" style="opacity: 0.6; isolation: isolate; transform-origin: 141.253px 197.143px;" class="animable"></path></g><path d="M114.67,199.37c-4.06,1-8,15.72-8,15.72l15.87,10.59S127.87,214,126,208.9C124.1,203.58,119.77,198.16,114.67,199.37Z" style="fill: rgb(255, 150, 64); transform-origin: 116.534px 212.439px;" id="eluapsm9d32xb" class="animable"></path><g id="elz4fm0393kae"><path d="M117.78,208.88l-1.1,12.86,5.89,4a52.89,52.89,0,0,0,3.6-11.45Z" style="opacity: 0.2; isolation: isolate; transform-origin: 121.425px 217.31px;" class="animable"></path></g><path d="M166.34,199.66s4.68,1.64-4.7,59.29H121.75c.67-16.27.69-26.29-7.08-59.58a117.94,117.94,0,0,1,16.94-2.22,124.53,124.53,0,0,1,18.12,0C157.52,197.86,166.34,199.66,166.34,199.66Z" style="fill: rgb(255, 150, 64); transform-origin: 141.089px 227.885px;" id="ely86lov8nkmk" class="animable"></path><path d="M169.83,199.43a16,16,0,0,1,3.61,4.07c1.39,2.27,2.93,10.15,2.43,13.31l-13.6,10.3s-10.29-25.54-8.43-30.64c1.14-3.11,4.51-3.21,7-2.35A31.11,31.11,0,0,1,169.83,199.43Z" style="fill: rgb(255, 150, 64); transform-origin: 164.791px 210.383px;" id="elwlco3v23q5m" class="animable"></path><path d="M156.19,158.45a15.5,15.5,0,0,1-1.84,8.29c-2.23,3.82-2.68,11.28-.34,15,1.89,3,5.54,4.34,7.82,7.07s3.41,6.45,1.51,9.83c-1.69,3-4.79,4.74-6.81,7.48-2.74,3.71-5.37,8.5-10.74,8-7.65-.66-8.76-7.61-14.18-6.94s-13.68,1.81-14.93-6.58c-.78-5.15,3.1-8.33,4.1-13,.72-3.3-1.29-6.23-1.45-9.49a12.73,12.73,0,0,1,3.32-9.24c1.66-1.83,3.72-3.07,4.75-5.43.82-1.87,1.42-3.83,2.21-5.72,1.66-4,4.8-7,9.46-7.56C152,148.65,155.5,153.26,156.19,158.45Z" style="fill: rgb(38, 50, 56); transform-origin: 140.44px 182.013px;" id="eljbcty1lhhl" class="animable"></path><path d="M150.79,168.93a9.67,9.67,0,0,0,1.53,5.22c1.32,2,2.89,1.25,3.28-.9.35-1.89.08-5.23-1.61-6.54S150.81,166.69,150.79,168.93Z" style="fill: rgb(229, 138, 123); transform-origin: 153.262px 170.751px;" id="elwety3jaacch" class="animable"></path><path d="M174.66,217.74s-1.19,26.55,3.64,31,15.54-2.45,15.54-2.45l2.11-9.18,6.68.3s1.3,11.34-6.68,16.29-14.77,10.22-24.26,2.58c-10.79-8.69-8.73-29.94-8.73-29.94Z" style="fill: rgb(229, 138, 123); transform-origin: 182.756px 238.935px;" id="elprnbxs659vn" class="animable"></path><path d="M156.62,163.17a4.58,4.58,0,0,1,1.23-2" style="fill: none; stroke: rgb(38, 50, 56); stroke-linecap: round; stroke-linejoin: round; transform-origin: 157.235px 162.17px;" id="elzuz0scylj5g" class="animable"></path><g id="el3isb2fzegjm"><path d="M163,226.37l-4.18-8.63.58,10.27A10.5,10.5,0,0,0,163,226.37Z" style="opacity: 0.2; isolation: isolate; transform-origin: 160.91px 222.875px;" class="animable"></path></g></g><defs>     <filter id="active" height="200%">         <feMorphology in="SourceAlpha" result="DILATED" operator="dilate" radius="2"></feMorphology>                <feFlood flood-color="#32DFEC" flood-opacity="1" result="PINK"></feFlood>        <feComposite in="PINK" in2="DILATED" operator="in" result="OUTLINE"></feComposite>        <feMerge>            <feMergeNode in="OUTLINE"></feMergeNode>            <feMergeNode in="SourceGraphic"></feMergeNode>        </feMerge>    </filter>    <filter id="hover" height="200%">        <feMorphology in="SourceAlpha" result="DILATED" operator="dilate" radius="2"></feMorphology>                <feFlood flood-color="#ff0000" flood-opacity="0.5" result="PINK"></feFlood>        <feComposite in="PINK" in2="DILATED" operator="in" result="OUTLINE"></feComposite>        <feMerge>            <feMergeNode in="OUTLINE"></feMergeNode>            <feMergeNode in="SourceGraphic"></feMergeNode>        </feMerge>            <feColorMatrix type="matrix" values="0   0   0   0   0                0   1   0   0   0                0   0   0   0   0                0   0   0   1   0 "></feColorMatrix>    </filter></defs></svg>