<svg width="246" height="245" viewBox="0 0 246 245" fill="none" xmlns="http://www.w3.org/2000/svg">
<path id="Vector" d="M236.515 18.8931C231.288 18.8931 227.03 14.6518 227.03 9.44657C227.03 4.24132 231.288 0 236.515 0C241.741 0 246 4.24132 246 9.44657C246 14.6839 241.741 18.8931 236.515 18.8931ZM246 65.9652C246 60.76 241.741 56.5187 236.515 56.5187C231.288 56.5187 227.03 60.76 227.03 65.9652C227.03 71.1705 231.288 75.4118 236.515 75.4118C241.741 75.4118 246 71.2026 246 65.9652ZM246 122.484C246 117.279 241.741 113.037 236.515 113.037C231.288 113.037 227.03 117.279 227.03 122.484C227.03 127.689 231.288 131.93 236.515 131.93C241.741 131.963 246 127.721 246 122.484ZM246 179.035C246 173.83 241.741 169.588 236.515 169.588C231.288 169.588 227.03 173.83 227.03 179.035C227.03 184.24 231.288 188.481 236.515 188.481C241.741 188.481 246 184.24 246 179.035ZM246 235.553C246 230.348 241.741 226.107 236.515 226.107C231.288 226.107 227.03 230.348 227.03 235.553C227.03 240.759 231.288 245 236.515 245C241.741 245 246 240.759 246 235.553ZM189.251 9.44657C189.251 4.24132 184.992 0 179.765 0C174.539 0 170.28 4.24132 170.28 9.44657C170.28 14.6518 174.539 18.8931 179.765 18.8931C184.992 18.8931 189.251 14.6839 189.251 9.44657ZM189.251 65.9652C189.251 60.76 184.992 56.5187 179.765 56.5187C174.539 56.5187 170.28 60.76 170.28 65.9652C170.28 71.1705 174.539 75.4118 179.765 75.4118C184.992 75.4118 189.251 71.2026 189.251 65.9652ZM189.251 122.484C189.251 117.279 184.992 113.037 179.765 113.037C174.539 113.037 170.28 117.279 170.28 122.484C170.28 127.689 174.539 131.93 179.765 131.93C184.992 131.963 189.251 127.721 189.251 122.484ZM189.251 179.035C189.251 173.83 184.992 169.588 179.765 169.588C174.539 169.588 170.28 173.83 170.28 179.035C170.28 184.24 174.539 188.481 179.765 188.481C184.992 188.481 189.251 184.24 189.251 179.035ZM189.251 235.553C189.251 230.348 184.992 226.107 179.765 226.107C174.539 226.107 170.28 230.348 170.28 235.553C170.28 240.759 174.539 245 179.765 245C184.992 245 189.251 240.759 189.251 235.553ZM132.469 9.44657C132.469 4.24132 128.21 0 122.984 0C117.757 0 113.499 4.24132 113.499 9.44657C113.499 14.6518 117.757 18.8931 122.984 18.8931C128.243 18.8931 132.469 14.6839 132.469 9.44657ZM132.469 65.9652C132.469 60.76 128.21 56.5187 122.984 56.5187C117.757 56.5187 113.499 60.76 113.499 65.9652C113.499 71.1705 117.757 75.4118 122.984 75.4118C128.243 75.4118 132.469 71.2026 132.469 65.9652ZM132.469 122.484C132.469 117.279 128.21 113.037 122.984 113.037C117.757 113.037 113.499 117.279 113.499 122.484C113.499 127.689 117.757 131.93 122.984 131.93C128.243 131.963 132.469 127.721 132.469 122.484ZM132.469 179.035C132.469 173.83 128.21 169.588 122.984 169.588C117.757 169.588 113.499 173.83 113.499 179.035C113.499 184.24 117.757 188.481 122.984 188.481C128.243 188.481 132.469 184.24 132.469 179.035ZM132.469 235.553C132.469 230.348 128.21 226.107 122.984 226.107C117.757 226.107 113.499 230.348 113.499 235.553C113.499 240.759 117.757 245 122.984 245C128.243 245 132.469 240.759 132.469 235.553ZM75.7195 9.44657C75.7195 4.24132 71.4609 0 66.2344 0C61.0079 0 56.7495 4.24132 56.7495 9.44657C56.7495 14.6518 61.0079 18.8931 66.2344 18.8931C71.4931 18.8931 75.7195 14.6839 75.7195 9.44657ZM75.7195 65.9652C75.7195 60.76 71.4609 56.5187 66.2344 56.5187C61.0079 56.5187 56.7495 60.76 56.7495 65.9652C56.7495 71.1705 61.0079 75.4118 66.2344 75.4118C71.4931 75.4118 75.7195 71.2026 75.7195 65.9652ZM75.7195 122.484C75.7195 117.279 71.4609 113.037 66.2344 113.037C61.0079 113.037 56.7495 117.279 56.7495 122.484C56.7495 127.689 61.0079 131.93 66.2344 131.93C71.4931 131.963 75.7195 127.721 75.7195 122.484ZM75.7195 179.035C75.7195 173.83 71.4609 169.588 66.2344 169.588C61.0079 169.588 56.7495 173.83 56.7495 179.035C56.7495 184.24 61.0079 188.481 66.2344 188.481C71.4931 188.481 75.7195 184.24 75.7195 179.035ZM75.7195 235.553C75.7195 230.348 71.4609 226.107 66.2344 226.107C61.0079 226.107 56.7495 230.348 56.7495 235.553C56.7495 240.759 61.0079 245 66.2344 245C71.4931 245 75.7195 240.759 75.7195 235.553ZM18.9702 9.44657C18.9702 4.24132 14.7116 0 9.48512 0C4.25863 0 0 4.24132 0 9.44657C0 14.6518 4.25863 18.8931 9.48512 18.8931C14.7116 18.8931 18.9702 14.6839 18.9702 9.44657ZM18.9702 65.9652C18.9702 60.76 14.7116 56.5187 9.48512 56.5187C4.25863 56.5187 0 60.76 0 65.9652C0 71.1705 4.25863 75.4118 9.48512 75.4118C14.7116 75.4118 18.9702 71.2026 18.9702 65.9652ZM18.9702 122.484C18.9702 117.279 14.7116 113.037 9.48512 113.037C4.25863 113.037 0 117.279 0 122.484C0 127.689 4.25863 131.93 9.48512 131.93C14.7116 131.93 18.9702 127.721 18.9702 122.484ZM18.9702 179.035C18.9702 173.83 14.7116 169.588 9.48512 169.588C4.25863 169.588 0 173.83 0 179.035C0 184.24 4.25863 188.481 9.48512 188.481C14.7116 188.481 18.9702 184.24 18.9702 179.035ZM18.9702 235.553C18.9702 230.348 14.7116 226.107 9.48512 226.107C4.25863 226.107 0 230.348 0 235.553C0 240.759 4.25863 245 9.48512 245C14.7116 245 18.9702 240.759 18.9702 235.553Z" fill="#1BB7AD"/>
</svg>
