<svg class="animated" id="freepik_stories-control-panel" xmlns="http://www.w3.org/2000/svg" viewBox="0 0 500 500" version="1.1" xmlns:xlink="http://www.w3.org/1999/xlink" xmlns:svgjs="http://svgjs.com/svgjs"><style>svg#freepik_stories-control-panel:not(.animated) .animable {opacity: 0;}svg#freepik_stories-control-panel.animated #freepik--background-complete--inject-9 {animation: 1s 1 forwards cubic-bezier(.36,-0.01,.5,1.38) zoomIn;animation-delay: 0s;}svg#freepik_stories-control-panel.animated #freepik--Shadow--inject-9 {animation: 1s 1 forwards cubic-bezier(.36,-0.01,.5,1.38) slideLeft;animation-delay: 0s;}svg#freepik_stories-control-panel.animated #freepik--control-panel--inject-9 {animation: 1s 1 forwards cubic-bezier(.36,-0.01,.5,1.38) slideLeft;animation-delay: 0s;}svg#freepik_stories-control-panel.animated #freepik--Character--inject-9 {animation: 1s 1 forwards cubic-bezier(.36,-0.01,.5,1.38) slideRight;animation-delay: 0s;}            @keyframes zoomIn {                0% {                    opacity: 0;                    transform: scale(0.5);                }                100% {                    opacity: 1;                    transform: scale(1);                }            }                    @keyframes slideLeft {                0% {                    opacity: 0;                    transform: translateX(-30px);                }                100% {                    opacity: 1;                    transform: translateX(0);                }            }                    @keyframes slideRight {                0% {                    opacity: 0;                    transform: translateX(30px);                }                100% {                    opacity: 1;                    transform: translateX(0);                }            }        </style><g id="freepik--background-complete--inject-9" class="animable" style="transform-origin: 250px 227.39px;"><rect y="382.4" width="500" height="0.25" style="fill: rgb(235, 235, 235); transform-origin: 250px 382.525px;" id="ellrntq05mvk" class="animable"></rect><rect x="52.46" y="391.92" width="33.12" height="0.25" style="fill: rgb(235, 235, 235); transform-origin: 69.02px 392.045px;" id="el8pheu3wlzet" class="animable"></rect><rect x="136.33" y="389.21" width="43.5" height="0.25" style="fill: rgb(235, 235, 235); transform-origin: 158.08px 389.335px;" id="el4xsil4w1gz4" class="animable"></rect><rect x="81.58" y="397.08" width="38.75" height="0.25" style="fill: rgb(235, 235, 235); transform-origin: 100.955px 397.205px;" id="elu6fk0wptcg" class="animable"></rect><rect x="406.71" y="399.53" width="43.19" height="0.25" style="fill: rgb(235, 235, 235); transform-origin: 428.305px 399.655px;" id="elz1j7tvc1jln" class="animable"></rect><rect x="379" y="399.53" width="18.8" height="0.25" style="fill: rgb(235, 235, 235); transform-origin: 388.4px 399.655px;" id="elhleeq1z8c66" class="animable"></rect><rect x="238.44" y="395.31" width="36.56" height="0.25" style="fill: rgb(235, 235, 235); transform-origin: 256.72px 395.435px;" id="elnwyxqohszvg" class="animable"></rect><path d="M237,337.8H43.91a5.71,5.71,0,0,1-5.7-5.71V60.66A5.71,5.71,0,0,1,43.91,55H237a5.71,5.71,0,0,1,5.71,5.71V332.09A5.71,5.71,0,0,1,237,337.8ZM43.91,55.2a5.46,5.46,0,0,0-5.45,5.46V332.09a5.46,5.46,0,0,0,5.45,5.46H237a5.47,5.47,0,0,0,5.46-5.46V60.66A5.47,5.47,0,0,0,237,55.2Z" style="fill: rgb(235, 235, 235); transform-origin: 140.46px 196.4px;" id="elcdbj8kr6ukt" class="animable"></path><path d="M453.31,337.8H260.21a5.72,5.72,0,0,1-5.71-5.71V60.66A5.72,5.72,0,0,1,260.21,55h193.1A5.71,5.71,0,0,1,459,60.66V332.09A5.71,5.71,0,0,1,453.31,337.8ZM260.21,55.2a5.47,5.47,0,0,0-5.46,5.46V332.09a5.47,5.47,0,0,0,5.46,5.46h193.1a5.47,5.47,0,0,0,5.46-5.46V60.66a5.47,5.47,0,0,0-5.46-5.46Z" style="fill: rgb(235, 235, 235); transform-origin: 356.75px 196.4px;" id="elqqfm9px2ys" class="animable"></path><g id="el9x5gzv5cnud"><path d="M359.16,293.2h67a0,0,0,0,1,0,0v89.2a0,0,0,0,1,0,0H369.83a10.68,10.68,0,0,1-10.68-10.68V293.2A0,0,0,0,1,359.16,293.2Z" style="fill: rgb(224, 224, 224); transform-origin: 392.655px 337.8px; transform: rotate(180deg);" class="animable"></path></g><path d="M229.83,293.2H371.39a10.68,10.68,0,0,1,10.68,10.68V382.4a0,0,0,0,1,0,0H219.15a0,0,0,0,1,0,0V303.88A10.68,10.68,0,0,1,229.83,293.2Z" style="fill: rgb(235, 235, 235); transform-origin: 300.61px 337.8px;" id="ele2lwn9nhvam" class="animable"></path><circle cx="302.31" cy="337.8" r="28.81" style="fill: rgb(224, 224, 224); transform-origin: 302.31px 337.8px;" id="els5v0dg0vb9e" class="animable"></circle><circle cx="300.61" cy="337.8" r="28.81" style="fill: rgb(250, 250, 250); transform-origin: 300.61px 337.8px;" id="el8b2g9vsnyg8" class="animable"></circle><circle cx="300.61" cy="337.8" r="19.38" style="fill: rgb(230, 230, 230); transform-origin: 300.61px 337.8px;" id="elysukj0wnrgf" class="animable"></circle><g id="ell6q9kogwg9k"><path d="M322.66,119.55h0a72.34,72.34,0,0,0-72.13,72.13V293.2H394.8V191.68A72.35,72.35,0,0,0,322.66,119.55Z" style="fill: rgb(224, 224, 224); opacity: 0.5; transform-origin: 322.665px 206.375px;" class="animable"></path></g><path d="M296.37,202.57h-19.1a5.71,5.71,0,0,1-5.76-6.48L274,173.58a7.46,7.46,0,0,1,7.21-6.48h19.1a5.69,5.69,0,0,1,5.75,6.48l-2.52,22.51A7.46,7.46,0,0,1,296.37,202.57Z" style="fill: rgb(224, 224, 224); transform-origin: 288.786px 184.835px;" id="el3xsvrw2bdmg" class="animable"></path><path d="M352.74,237.42h16.2a4.84,4.84,0,0,0,4.88-5.5l-2.14-19.08a6.33,6.33,0,0,0-6.11-5.5H349.38a4.83,4.83,0,0,0-4.88,5.5l2.14,19.08A6.32,6.32,0,0,0,352.74,237.42Z" style="fill: rgb(224, 224, 224); transform-origin: 359.159px 222.38px;" id="elboo3h2tzg3q" class="animable"></path><path d="M334,170.76h13.52a4,4,0,0,0,4.08-4.59l-1.79-15.94a5.29,5.29,0,0,0-5.1-4.59H331.16a4,4,0,0,0-4.08,4.59l1.79,15.94A5.28,5.28,0,0,0,334,170.76Z" style="fill: rgb(224, 224, 224); transform-origin: 339.34px 158.2px;" id="elrizs9vbkvt" class="animable"></path><path d="M300.27,263.65H288.8a3.42,3.42,0,0,1-3.45-3.9l1.51-13.51a4.48,4.48,0,0,1,4.33-3.89h11.46a3.42,3.42,0,0,1,3.46,3.89l-1.51,13.51A4.49,4.49,0,0,1,300.27,263.65Z" style="fill: rgb(224, 224, 224); transform-origin: 295.729px 253px;" id="elakru5pyqvan" class="animable"></path><path d="M313.43,293.2h-2c0-7.56,5.42-11.29,10.67-14.89,5-3.47,9.79-6.74,9.79-13.25s-4.76-9.79-9.79-13.25c-5.25-3.61-10.67-7.34-10.67-14.9s5.42-11.29,10.67-14.9c5-3.46,9.79-6.74,9.79-13.25s-4.76-9.78-9.79-13.25c-5.25-3.6-10.67-7.33-10.67-14.9s5.42-11.29,10.67-14.9c5-3.46,9.79-6.74,9.79-13.25h2c0,7.57-5.42,11.29-10.66,14.9-5,3.47-9.8,6.74-9.8,13.25s4.76,9.79,9.8,13.25c5.24,3.61,10.66,7.34,10.66,14.9s-5.42,11.3-10.66,14.9c-5,3.47-9.8,6.74-9.8,13.25s4.76,9.78,9.8,13.25c5.24,3.61,10.66,7.33,10.66,14.9s-5.42,11.29-10.66,14.89C318.19,283.42,313.43,286.69,313.43,293.2Z" style="fill: rgb(255, 255, 255); transform-origin: 322.66px 222.83px;" id="el6fe0k2g6k24" class="animable"></path><polygon points="127.89 382.4 157.92 382.4 150.46 165 135.35 165 127.89 382.4" style="fill: rgb(245, 245, 245); transform-origin: 142.905px 273.7px;" id="elsdnkx36iq5b" class="animable"></polygon><polygon points="92.2 382.4 122.24 382.4 114.78 165 99.67 165 92.2 382.4" style="fill: rgb(235, 235, 235); transform-origin: 107.22px 273.7px;" id="el0wfw73oz3h39" class="animable"></polygon><polygon points="56.52 382.4 86.55 382.4 79.09 165 63.98 165 56.52 382.4" style="fill: rgb(224, 224, 224); transform-origin: 71.535px 273.7px;" id="el0z07xd03n28e" class="animable"></polygon><g id="elpiw4ig64l4f"><path d="M90.05,154.7l64.33-3.6c2.56-.14,4.83-1.11,5.79-2.47l5.22-7.41c1.34-1.91-.28-3.95-3.6-4.56l-9.93-1.82c-5.84-1.07-5.26-5.8.84-6.87l50.3-8.84c4.52-.8,6.42-3.87,3.6-5.82l-1.42-1c-3.06-2.12-.55-5.46,4.47-5.94l81.65-7.83c6.41-.62,8-5.48,2.27-6.88h0c-6.09-1.49-3.85-6.69,3-6.93l128-4.44a8.47,8.47,0,0,0,5.76-2.13l6.45-7c2.3-2.51-.88-5.29-5.79-5.06L123.72,80c-7,.32-8.89,5.74-2.44,7l32.79,6.45c5.93,1.17,4.94,6-1.41,6.92l-34.17,4.65c-5.9.8-7.35,5.2-2.22,6.71l4.28,1.27c5,1.49,3.76,5.78-2,6.68L78.77,126c-5.84.92-7,5.32-1.8,6.73l23.77,6.46c5.17,1.4,4.07,5.75-1.7,6.71l-10.63,1.77C80.79,148.92,82.24,155.13,90.05,154.7Z" style="fill: rgb(224, 224, 224); opacity: 0.2; transform-origin: 255.6px 110.404px;" class="animable"></path></g></g><g id="freepik--Shadow--inject-9" class="animable" style="transform-origin: 250px 416.24px;"><ellipse id="freepik--path--inject-9" cx="250" cy="416.24" rx="193.89" ry="11.32" style="fill: rgb(245, 245, 245); transform-origin: 250px 416.24px;" class="animable"></ellipse></g><g id="freepik--control-panel--inject-9" class="animable" style="transform-origin: 256.5px 212.355px;"><path d="M368.59,148.55H160.86a3.78,3.78,0,0,0-3.78,3.47L146.51,281.66a3.78,3.78,0,0,0,3.77,4.09H358a3.78,3.78,0,0,0,3.77-3.48l10.57-129.63A3.78,3.78,0,0,0,368.59,148.55Z" style="fill: rgb(251, 91, 23); transform-origin: 259.425px 217.15px;" id="elq2dpnz4wfu" class="animable"></path><g id="elabl57ppk4b"><path d="M368.59,148.55H160.86a3.78,3.78,0,0,0-3.78,3.47L146.51,281.66a3.78,3.78,0,0,0,3.77,4.09H358a3.78,3.78,0,0,0,3.77-3.48l10.57-129.63A3.78,3.78,0,0,0,368.59,148.55Z" style="fill: rgb(38, 50, 56); opacity: 0.4; transform-origin: 259.425px 217.15px;" class="animable"></path></g><rect x="290.71" y="138.96" width="4.31" height="1.07" style="fill: rgb(251, 91, 23); transform-origin: 292.865px 139.495px;" id="elwgxtw1rlut" class="animable"></rect><rect x="267.46" y="138.96" width="17.91" height="1.07" style="fill: rgb(251, 91, 23); transform-origin: 276.415px 139.495px;" id="el5egr5vp2eai" class="animable"></rect><path d="M362.74,142.7H155a3.8,3.8,0,0,0-3.78,3.48L140.66,275.81a3.78,3.78,0,0,0,3.77,4.09H352.17a3.78,3.78,0,0,0,3.77-3.48l10.57-129.63A3.78,3.78,0,0,0,362.74,142.7Z" style="fill: rgb(251, 91, 23); transform-origin: 253.585px 211.3px;" id="elddoa79wndx6" class="animable"></path><g id="elr4vjo83eyls"><path d="M355.09,207.66H152.67l4.81-58.87H359.89Zm-201.26-1.07H354.11l4.63-56.73H158.46Z" style="fill: rgb(255, 255, 255); opacity: 0.1; transform-origin: 256.28px 178.225px;" class="animable"></path></g><g id="eleri33sewn6i"><path d="M346.51,201.75h0a1.62,1.62,0,0,0,1.59-1.47l3.6-44.11a1.33,1.33,0,0,0-1.35-1.47h0a1.63,1.63,0,0,0-1.6,1.47l-3.59,44.11A1.33,1.33,0,0,0,346.51,201.75Z" style="fill: rgb(255, 255, 255); opacity: 0.4; transform-origin: 348.43px 178.225px;" class="animable"></path></g><path d="M346.63,179.33h3.42a.77.77,0,0,0,.75-.7l.29-3.52a.64.64,0,0,0-.64-.7H347a.78.78,0,0,0-.75.7l-.29,3.52A.63.63,0,0,0,346.63,179.33Z" style="fill: rgb(255, 255, 255); transform-origin: 348.524px 176.871px;" id="el8k94argh3n2" class="animable"></path><g id="elog9mpgpjld"><path d="M334,201.75h0a1.63,1.63,0,0,0,1.59-1.47l3.6-44.11a1.33,1.33,0,0,0-1.35-1.47h0a1.63,1.63,0,0,0-1.6,1.47l-3.6,44.11A1.34,1.34,0,0,0,334,201.75Z" style="fill: rgb(255, 255, 255); opacity: 0.4; transform-origin: 335.916px 178.225px;" class="animable"></path></g><path d="M334.74,171.47h3.41a.77.77,0,0,0,.76-.7l.29-3.51a.64.64,0,0,0-.64-.7h-3.42a.78.78,0,0,0-.76.7l-.28,3.51A.63.63,0,0,0,334.74,171.47Z" style="fill: rgb(255, 255, 255); transform-origin: 336.649px 169.015px;" id="ellef1y69t6vl" class="animable"></path><g id="elwtc0d052jd"><path d="M321.44,201.75h0a1.63,1.63,0,0,0,1.6-1.47l3.6-44.11a1.34,1.34,0,0,0-1.36-1.47h0a1.63,1.63,0,0,0-1.59,1.47l-3.6,44.11A1.33,1.33,0,0,0,321.44,201.75Z" style="fill: rgb(255, 255, 255); opacity: 0.4; transform-origin: 323.364px 178.225px;" class="animable"></path></g><path d="M320.8,188.73h3.41a.78.78,0,0,0,.76-.7l.29-3.52a.64.64,0,0,0-.65-.7H321.2a.78.78,0,0,0-.76.7l-.28,3.52A.64.64,0,0,0,320.8,188.73Z" style="fill: rgb(255, 255, 255); transform-origin: 322.71px 186.27px;" id="el8f5u75yy0t8" class="animable"></path><g id="ely5hj791wzn"><path d="M308.91,201.75h0a1.63,1.63,0,0,0,1.6-1.47l3.59-44.11a1.33,1.33,0,0,0-1.35-1.47h0a1.62,1.62,0,0,0-1.59,1.47l-3.6,44.11A1.33,1.33,0,0,0,308.91,201.75Z" style="fill: rgb(255, 255, 255); opacity: 0.4; transform-origin: 310.83px 178.225px;" class="animable"></path></g><path d="M308.77,182.6h3.41a.77.77,0,0,0,.76-.7l.29-3.52a.64.64,0,0,0-.65-.7h-3.41a.78.78,0,0,0-.76.7l-.29,3.52A.64.64,0,0,0,308.77,182.6Z" style="fill: rgb(255, 255, 255); transform-origin: 310.675px 180.14px;" id="elpr0g503ud3h" class="animable"></path><g id="el8doa2byo8qy"><path d="M296.38,201.75h0a1.62,1.62,0,0,0,1.59-1.47l3.6-44.11a1.33,1.33,0,0,0-1.35-1.47h0a1.63,1.63,0,0,0-1.6,1.47L295,200.28A1.33,1.33,0,0,0,296.38,201.75Z" style="fill: rgb(255, 255, 255); opacity: 0.4; transform-origin: 298.285px 178.225px;" class="animable"></path></g><path d="M296.64,177.68h3.41a.77.77,0,0,0,.76-.7l.28-3.51a.63.63,0,0,0-.64-.7H297a.77.77,0,0,0-.76.7L296,177A.64.64,0,0,0,296.64,177.68Z" style="fill: rgb(255, 255, 255); transform-origin: 298.546px 175.225px;" id="eldpat21nhny" class="animable"></path><g id="el25ji7mtvswwh"><path d="M181.27,167.58h88.51a4.53,4.53,0,0,0,4.42-4.09h0a3.71,3.71,0,0,0-3.76-4.08h-88.5a4.52,4.52,0,0,0-4.42,4.08h0A3.72,3.72,0,0,0,181.27,167.58Z" style="fill: rgb(255, 255, 255); opacity: 0.4; transform-origin: 225.86px 163.495px;" class="animable"></path></g><path d="M166,182.31H268.57a4.51,4.51,0,0,0,4.42-4.08h0a3.7,3.7,0,0,0-3.75-4.09H166.63a4.51,4.51,0,0,0-4.42,4.09h0A3.71,3.71,0,0,0,166,182.31Z" style="fill: rgb(250, 250, 250); transform-origin: 217.601px 178.225px;" id="elimnwwu3n6p" class="animable"></path><g id="elgbectem01nc"><rect x="204.83" y="188.87" width="66.96" height="8.17" rx="4.09" style="fill: rgb(38, 50, 56); opacity: 0.4; transform-origin: 238.31px 192.955px;" class="animable"></rect></g><g id="elsc1zad4qbu"><polygon points="334.61 231.76 346.54 231.76 347.51 219.84 335.59 219.84 334.61 231.76" style="fill: rgb(38, 50, 56); opacity: 0.3; transform-origin: 341.06px 225.8px;" class="animable"></polygon></g><g id="eldnhr79ilwm7"><polygon points="317.07 231.76 328.99 231.76 329.96 219.84 318.04 219.84 317.07 231.76" style="fill: rgb(38, 50, 56); opacity: 0.3; transform-origin: 323.515px 225.8px;" class="animable"></polygon></g><polygon points="299.52 231.76 311.44 231.76 312.42 219.84 300.49 219.84 299.52 231.76" style="fill: rgb(255, 255, 255); transform-origin: 305.97px 225.8px;" id="elnx2zvdsphu" class="animable"></polygon><g id="elb9267j9igrt"><polygon points="281.98 231.76 293.9 231.76 294.87 219.84 282.95 219.84 281.98 231.76" style="fill: rgb(38, 50, 56); opacity: 0.3; transform-origin: 288.425px 225.8px;" class="animable"></polygon></g><polygon points="333.18 249.31 345.11 249.31 346.08 237.39 334.16 237.39 333.18 249.31" style="fill: rgb(255, 255, 255); transform-origin: 339.63px 243.35px;" id="elrnpep7r8m9r" class="animable"></polygon><g id="elj624qnozv2g"><polygon points="315.64 249.31 327.56 249.31 328.53 237.39 316.61 237.39 315.64 249.31" style="fill: rgb(38, 50, 56); opacity: 0.3; transform-origin: 322.085px 243.35px;" class="animable"></polygon></g><g id="elu58mfr2dt7l"><polygon points="298.09 249.31 310.01 249.31 310.98 237.39 299.06 237.39 298.09 249.31" style="fill: rgb(38, 50, 56); opacity: 0.3; transform-origin: 304.535px 243.35px;" class="animable"></polygon></g><g id="elhd5bmispm3k"><polygon points="280.54 249.31 292.47 249.31 293.44 237.39 281.52 237.39 280.54 249.31" style="fill: rgb(38, 50, 56); opacity: 0.3; transform-origin: 286.99px 243.35px;" class="animable"></polygon></g><g id="elm1voh4u6kfo"><polygon points="331.75 266.85 343.67 266.85 344.65 254.93 332.72 254.93 331.75 266.85" style="fill: rgb(38, 50, 56); opacity: 0.3; transform-origin: 338.2px 260.89px;" class="animable"></polygon></g><g id="el5gge45l9rad"><polygon points="314.21 266.85 326.13 266.85 327.1 254.93 315.18 254.93 314.21 266.85" style="fill: rgb(38, 50, 56); opacity: 0.3; transform-origin: 320.655px 260.89px;" class="animable"></polygon></g><polygon points="296.66 266.85 308.58 266.85 309.55 254.93 297.63 254.93 296.66 266.85" style="fill: rgb(255, 255, 255); transform-origin: 303.105px 260.89px;" id="elmhuqeyup2wl" class="animable"></polygon><g id="elf61k4qswvqk"><polygon points="279.11 266.85 291.03 266.85 292.01 254.93 280.08 254.93 279.11 266.85" style="fill: rgb(38, 50, 56); opacity: 0.3; transform-origin: 285.56px 260.89px;" class="animable"></polygon></g><g id="elty1nu3wtdi"><polygon points="246.59 243.67 242.62 243.67 241.96 251.76 245.93 251.76 246.59 243.67" style="fill: rgb(38, 50, 56); opacity: 0.3; transform-origin: 244.275px 247.715px;" class="animable"></polygon></g><g id="eldu1os5q3ho8"><polygon points="252.45 243.67 248.47 243.67 247.81 251.76 251.79 251.76 252.45 243.67" style="fill: rgb(38, 50, 56); opacity: 0.3; transform-origin: 250.13px 247.715px;" class="animable"></polygon></g><polygon points="258.3 243.67 254.32 243.67 253.66 251.76 257.64 251.76 258.3 243.67" style="fill: rgb(255, 255, 255); transform-origin: 255.98px 247.715px;" id="elhxa7l4xk6q" class="animable"></polygon><g id="elox05b6xnv39"><polygon points="264.15 243.67 260.18 243.67 259.51 251.76 263.49 251.76 264.15 243.67" style="fill: rgb(38, 50, 56); opacity: 0.3; transform-origin: 261.83px 247.715px;" class="animable"></polygon></g><polygon points="247.56 231.75 243.59 231.75 242.93 239.85 246.91 239.85 247.56 231.75" style="fill: rgb(255, 255, 255); transform-origin: 245.245px 235.8px;" id="elzdltpi5n6hl" class="animable"></polygon><g id="eln943tjrxk4"><polygon points="253.42 231.75 249.44 231.75 248.78 239.85 252.76 239.85 253.42 231.75" style="fill: rgb(38, 50, 56); opacity: 0.3; transform-origin: 251.1px 235.8px;" class="animable"></polygon></g><g id="eliegspurc94"><polygon points="259.27 231.75 255.29 231.75 254.63 239.85 258.61 239.85 259.27 231.75" style="fill: rgb(38, 50, 56); opacity: 0.3; transform-origin: 256.95px 235.8px;" class="animable"></polygon></g><g id="eluqrwsw8ixqd"><polygon points="265.12 231.75 261.15 231.75 260.49 239.85 264.46 239.85 265.12 231.75" style="fill: rgb(38, 50, 56); opacity: 0.3; transform-origin: 262.805px 235.8px;" class="animable"></polygon></g><g id="elx5o0r9u7l3k"><polygon points="248.54 219.84 244.56 219.84 243.9 227.94 247.88 227.94 248.54 219.84" style="fill: rgb(38, 50, 56); opacity: 0.3; transform-origin: 246.22px 223.89px;" class="animable"></polygon></g><g id="elzbzg1xv3w5"><polygon points="254.39 219.84 250.41 219.84 249.75 227.94 253.73 227.94 254.39 219.84" style="fill: rgb(38, 50, 56); opacity: 0.3; transform-origin: 252.07px 223.89px;" class="animable"></polygon></g><g id="elb49dy3kv2qg"><polygon points="260.24 219.84 256.27 219.84 255.61 227.94 259.58 227.94 260.24 219.84" style="fill: rgb(38, 50, 56); opacity: 0.3; transform-origin: 257.925px 223.89px;" class="animable"></polygon></g><g id="eldv86i363ppq"><polygon points="266.1 219.84 262.12 219.84 261.46 227.94 265.44 227.94 266.1 219.84" style="fill: rgb(38, 50, 56); opacity: 0.3; transform-origin: 263.78px 223.89px;" class="animable"></polygon></g><g id="elzhrnbam9w2h"><polygon points="218.01 243.67 214.03 243.67 213.38 251.76 217.35 251.76 218.01 243.67" style="fill: rgb(38, 50, 56); opacity: 0.3; transform-origin: 215.695px 247.715px;" class="animable"></polygon></g><polygon points="223.86 243.67 219.89 243.67 219.23 251.76 223.2 251.76 223.86 243.67" style="fill: rgb(255, 255, 255); transform-origin: 221.545px 247.715px;" id="eleq4j3bs22es" class="animable"></polygon><g id="elt1kyfe8z0ge"><polygon points="229.72 243.67 225.74 243.67 225.08 251.76 229.06 251.76 229.72 243.67" style="fill: rgb(38, 50, 56); opacity: 0.3; transform-origin: 227.4px 247.715px;" class="animable"></polygon></g><g id="elaozexabpfv"><polygon points="235.57 243.67 231.59 243.67 230.93 251.76 234.91 251.76 235.57 243.67" style="fill: rgb(38, 50, 56); opacity: 0.3; transform-origin: 233.25px 247.715px;" class="animable"></polygon></g><polygon points="218.98 231.75 215.01 231.75 214.35 239.85 218.32 239.85 218.98 231.75" style="fill: rgb(255, 255, 255); transform-origin: 216.665px 235.8px;" id="eld93gr9v6crh" class="animable"></polygon><g id="elm8xq9f32fvp"><polygon points="224.84 231.75 220.86 231.75 220.2 239.85 224.18 239.85 224.84 231.75" style="fill: rgb(38, 50, 56); opacity: 0.3; transform-origin: 222.52px 235.8px;" class="animable"></polygon></g><polygon points="230.69 231.75 226.71 231.75 226.05 239.85 230.03 239.85 230.69 231.75" style="fill: rgb(255, 255, 255); transform-origin: 228.37px 235.8px;" id="el35n9or8db9f" class="animable"></polygon><polygon points="236.54 231.75 232.56 231.75 231.91 239.85 235.88 239.85 236.54 231.75" style="fill: rgb(255, 255, 255); transform-origin: 234.225px 235.8px;" id="elk5677l1gzgt" class="animable"></polygon><g id="el52ru424djch"><polygon points="219.96 219.84 215.98 219.84 215.32 227.94 219.29 227.94 219.96 219.84" style="fill: rgb(38, 50, 56); opacity: 0.3; transform-origin: 217.64px 223.89px;" class="animable"></polygon></g><polygon points="225.81 219.84 221.83 219.84 221.17 227.94 225.15 227.94 225.81 219.84" style="fill: rgb(255, 255, 255); transform-origin: 223.49px 223.89px;" id="el0saihpc28m2k" class="animable"></polygon><polygon points="231.66 219.84 227.68 219.84 227.02 227.94 231 227.94 231.66 219.84" style="fill: rgb(255, 255, 255); transform-origin: 229.34px 223.89px;" id="el1jolmlqmtpm" class="animable"></polygon><g id="els0ilc0gok7s"><polygon points="237.51 219.84 233.54 219.84 232.88 227.94 236.85 227.94 237.51 219.84" style="fill: rgb(38, 50, 56); opacity: 0.3; transform-origin: 235.195px 223.89px;" class="animable"></polygon></g><polygon points="189.43 243.67 185.45 243.67 184.79 251.76 188.77 251.76 189.43 243.67" style="fill: rgb(255, 255, 255); transform-origin: 187.11px 247.715px;" id="el2b7zmcx49cm" class="animable"></polygon><g id="elz4kypn4cot"><polygon points="195.28 243.67 191.31 243.67 190.65 251.76 194.62 251.76 195.28 243.67" style="fill: rgb(38, 50, 56); opacity: 0.3; transform-origin: 192.965px 247.715px;" class="animable"></polygon></g><polygon points="201.14 243.67 197.16 243.67 196.5 251.76 200.47 251.76 201.14 243.67" style="fill: rgb(255, 255, 255); transform-origin: 198.82px 247.715px;" id="el12q3zpi44e2" class="animable"></polygon><g id="ely1mv5lfvuz"><polygon points="206.99 243.67 203.01 243.67 202.35 251.76 206.33 251.76 206.99 243.67" style="fill: rgb(38, 50, 56); opacity: 0.3; transform-origin: 204.67px 247.715px;" class="animable"></polygon></g><polygon points="190.4 231.75 186.43 231.75 185.76 239.85 189.74 239.85 190.4 231.75" style="fill: rgb(255, 255, 255); transform-origin: 188.08px 235.8px;" id="elev812m4fgpq" class="animable"></polygon><polygon points="196.25 231.75 192.28 231.75 191.62 239.85 195.59 239.85 196.25 231.75" style="fill: rgb(255, 255, 255); transform-origin: 193.935px 235.8px;" id="eld3p6ngpi1w5" class="animable"></polygon><g id="elbkenr5y94t7"><polygon points="202.11 231.75 198.13 231.75 197.47 239.85 201.45 239.85 202.11 231.75" style="fill: rgb(38, 50, 56); opacity: 0.3; transform-origin: 199.79px 235.8px;" class="animable"></polygon></g><g id="elyrnmz4x2v"><polygon points="207.96 231.75 203.98 231.75 203.32 239.85 207.3 239.85 207.96 231.75" style="fill: rgb(38, 50, 56); opacity: 0.3; transform-origin: 205.64px 235.8px;" class="animable"></polygon></g><polygon points="191.37 219.84 187.4 219.84 186.74 227.94 190.71 227.94 191.37 219.84" style="fill: rgb(255, 255, 255); transform-origin: 189.055px 223.89px;" id="elgcrj6e8p77f" class="animable"></polygon><g id="elj4n67vt1g69"><polygon points="197.23 219.84 193.25 219.84 192.59 227.94 196.57 227.94 197.23 219.84" style="fill: rgb(38, 50, 56); opacity: 0.3; transform-origin: 194.91px 223.89px;" class="animable"></polygon></g><g id="elxzkpy24e0kr"><polygon points="203.08 219.84 199.1 219.84 198.44 227.94 202.42 227.94 203.08 219.84" style="fill: rgb(38, 50, 56); opacity: 0.3; transform-origin: 200.76px 223.89px;" class="animable"></polygon></g><g id="el1jn9tvtc6na"><polygon points="208.93 219.84 204.96 219.84 204.29 227.94 208.27 227.94 208.93 219.84" style="fill: rgb(38, 50, 56); opacity: 0.3; transform-origin: 206.61px 223.89px;" class="animable"></polygon></g><polygon points="160.85 243.67 156.87 243.67 156.21 251.76 160.19 251.76 160.85 243.67" style="fill: rgb(255, 255, 255); transform-origin: 158.53px 247.715px;" id="elg68akhmw78" class="animable"></polygon><g id="elrwjoxa7y6"><polygon points="166.7 243.67 162.72 243.67 162.06 251.76 166.04 251.76 166.7 243.67" style="fill: rgb(38, 50, 56); opacity: 0.3; transform-origin: 164.38px 247.715px;" class="animable"></polygon></g><polygon points="172.55 243.67 168.58 243.67 167.92 251.76 171.89 251.76 172.55 243.67" style="fill: rgb(255, 255, 255); transform-origin: 170.235px 247.715px;" id="elq5919gwvgg" class="animable"></polygon><g id="el2t1yzz79oq5"><polygon points="178.41 243.67 174.43 243.67 173.77 251.76 177.75 251.76 178.41 243.67" style="fill: rgb(38, 50, 56); opacity: 0.3; transform-origin: 176.09px 247.715px;" class="animable"></polygon></g><g id="el1105mix3hdm"><polygon points="161.82 231.75 157.84 231.75 157.18 239.85 161.16 239.85 161.82 231.75" style="fill: rgb(38, 50, 56); opacity: 0.3; transform-origin: 159.5px 235.8px;" class="animable"></polygon></g><g id="elspx72ywgaw"><polygon points="167.67 231.75 163.7 231.75 163.04 239.85 167.01 239.85 167.67 231.75" style="fill: rgb(38, 50, 56); opacity: 0.3; transform-origin: 165.355px 235.8px;" class="animable"></polygon></g><polygon points="173.53 231.75 169.55 231.75 168.89 239.85 172.87 239.85 173.53 231.75" style="fill: rgb(255, 255, 255); transform-origin: 171.21px 235.8px;" id="el1iw0zglzxxt" class="animable"></polygon><g id="eljs3pcxbzcg"><polygon points="179.38 231.75 175.4 231.75 174.74 239.85 178.72 239.85 179.38 231.75" style="fill: rgb(38, 50, 56); opacity: 0.3; transform-origin: 177.06px 235.8px;" class="animable"></polygon></g><polygon points="162.79 219.84 158.82 219.84 158.16 227.94 162.13 227.94 162.79 219.84" style="fill: rgb(255, 255, 255); transform-origin: 160.475px 223.89px;" id="elnt98ih05r6g" class="animable"></polygon><g id="elmc1x1xnvg8s"><polygon points="168.65 219.84 164.67 219.84 164.01 227.94 167.99 227.94 168.65 219.84" style="fill: rgb(38, 50, 56); opacity: 0.3; transform-origin: 166.33px 223.89px;" class="animable"></polygon></g><polygon points="174.5 219.84 170.52 219.84 169.86 227.94 173.84 227.94 174.5 219.84" style="fill: rgb(255, 255, 255); transform-origin: 172.18px 223.89px;" id="elr0lz331hz3d" class="animable"></polygon><polygon points="180.35 219.84 176.37 219.84 175.71 227.94 179.69 227.94 180.35 219.84" style="fill: rgb(255, 255, 255); transform-origin: 178.03px 223.89px;" id="elpfsrtz7c8js" class="animable"></polygon><g id="el5auyg5qdtt"><ellipse cx="260.07" cy="262.27" rx="2.67" ry="2.47" style="fill: rgb(255, 255, 255); transform-origin: 260.07px 262.27px; transform: rotate(-43.83deg);" class="animable"></ellipse></g><g id="elmgudbk32vj"><ellipse cx="248.72" cy="262.27" rx="2.67" ry="2.47" style="fill: rgb(255, 255, 255); transform-origin: 248.72px 262.27px; transform: rotate(-43.83deg);" class="animable"></ellipse></g><path d="M234.8,262.27a2.33,2.33,0,0,0,2.36,2.57,2.84,2.84,0,0,0,2.78-2.57,2.34,2.34,0,0,0-2.36-2.57A2.84,2.84,0,0,0,234.8,262.27Z" style="fill: rgb(255, 255, 255); transform-origin: 237.369px 262.27px;" id="elwrnaseknou" class="animable"></path><path d="M223.45,262.27a2.34,2.34,0,0,0,2.36,2.57,2.84,2.84,0,0,0,2.78-2.57,2.34,2.34,0,0,0-2.36-2.57A2.84,2.84,0,0,0,223.45,262.27Z" style="fill: rgb(255, 255, 255); transform-origin: 226.02px 262.27px;" id="el9ph6a46zdzh" class="animable"></path><path d="M212.1,262.27a2.34,2.34,0,0,0,2.36,2.57,2.84,2.84,0,0,0,2.78-2.57,2.34,2.34,0,0,0-2.36-2.57A2.84,2.84,0,0,0,212.1,262.27Z" style="fill: rgb(255, 255, 255); transform-origin: 214.67px 262.27px;" id="eldvld8c10364" class="animable"></path><path d="M200.75,262.27a2.34,2.34,0,0,0,2.36,2.57,2.84,2.84,0,0,0,2.78-2.57,2.34,2.34,0,0,0-2.36-2.57A2.84,2.84,0,0,0,200.75,262.27Z" style="fill: rgb(255, 255, 255); transform-origin: 203.32px 262.27px;" id="el8onx91n62l" class="animable"></path><path d="M189.4,262.27a2.34,2.34,0,0,0,2.36,2.57,2.84,2.84,0,0,0,2.78-2.57,2.34,2.34,0,0,0-2.36-2.57A2.84,2.84,0,0,0,189.4,262.27Z" style="fill: rgb(255, 255, 255); transform-origin: 191.97px 262.27px;" id="elbwfiginxmiv" class="animable"></path><path d="M178.05,262.27a2.34,2.34,0,0,0,2.36,2.57,2.84,2.84,0,0,0,2.78-2.57,2.34,2.34,0,0,0-2.36-2.57A2.84,2.84,0,0,0,178.05,262.27Z" style="fill: rgb(255, 255, 255); transform-origin: 180.62px 262.27px;" id="elek8s43lgjkp" class="animable"></path><g id="elpz0t9aj7yv"><path d="M166.7,262.27a2.34,2.34,0,0,0,2.36,2.57,2.84,2.84,0,0,0,2.78-2.57,2.33,2.33,0,0,0-2.36-2.57A2.84,2.84,0,0,0,166.7,262.27Z" style="fill: rgb(38, 50, 56); opacity: 0.3; transform-origin: 169.271px 262.27px;" class="animable"></path></g><path d="M155.35,262.27a2.34,2.34,0,0,0,2.36,2.57,2.84,2.84,0,0,0,2.78-2.57,2.33,2.33,0,0,0-2.36-2.57A2.84,2.84,0,0,0,155.35,262.27Z" style="fill: rgb(255, 255, 255); transform-origin: 157.921px 262.27px;" id="elvqx2v0enb99" class="animable"></path></g><g id="freepik--Character--inject-9" class="animable" style="transform-origin: 194.961px 261.75px;"><path d="M167.34,164.79c-.59.91-1.29,2.08-1.93,3.14s-1.31,2.18-1.94,3.29c-1.26,2.21-2.5,4.44-3.63,6.7a80.31,80.31,0,0,0-5.61,13.59l-.45,1.68-.06.21c0,.07,0,.16,0,.13s0,0,0,0a1.59,1.59,0,0,1,0-.17l-.06-.32a3.36,3.36,0,0,0-.16-.48,3.56,3.56,0,0,0-.28-.6,3.82,3.82,0,0,0-.91-1c-.67-.44-.89-.37-.83-.32a5.5,5.5,0,0,0,2.14.24,26.31,26.31,0,0,0,3.39-.29A151.69,151.69,0,0,0,172,187.31l2.87,6.38a70.13,70.13,0,0,1-7.41,4.14,63.76,63.76,0,0,1-8,3.3,39.52,39.52,0,0,1-4.57,1.17,19.23,19.23,0,0,1-2.66.31,14.49,14.49,0,0,1-3.26-.16,10,10,0,0,1-4.51-1.92,8.75,8.75,0,0,1-2.21-2.52,9.43,9.43,0,0,1-.7-1.52,11.27,11.27,0,0,1-.38-1.46l-.1-.7-.05-.63a11.6,11.6,0,0,1,0-1.18c0-.39.06-.69.1-1l.05-.36,0-.29.39-2.28a62.79,62.79,0,0,1,2.35-8.65,83,83,0,0,1,3.24-8.08c1.19-2.62,2.5-5.16,3.9-7.64.7-1.25,1.41-2.48,2.17-3.69s1.51-2.36,2.43-3.69Z" style="fill: rgb(255, 139, 123); transform-origin: 157.937px 179.74px;" id="elp62jhv20ymi" class="animable"></path><path d="M170.84,187.81l4.33-4.32,4.32,9.61s-4.08,2.27-7.72.62Z" style="fill: rgb(255, 139, 123); transform-origin: 175.165px 188.906px;" id="el7bmv1kbjlw" class="animable"></path><polygon points="181.59 180.04 184.78 188.16 179.49 193.1 175.18 183.49 181.59 180.04" style="fill: rgb(255, 139, 123); transform-origin: 179.98px 186.57px;" id="ele8mkp6glenp" class="animable"></polygon><path d="M198.53,127.49c-.1.66.17,1.25.6,1.31s.86-.41,1-1.07-.17-1.25-.6-1.31S198.63,126.83,198.53,127.49Z" style="fill: rgb(38, 50, 56); transform-origin: 199.337px 127.61px;" id="elkhnj77a406" class="animable"></path><path d="M198.64,128.73a23.77,23.77,0,0,0,2.29,6.1,3.82,3.82,0,0,1-3.23.11Z" style="fill: rgb(255, 86, 82); transform-origin: 199.315px 131.988px;" id="el7odqqw1vb0f" class="animable"></path><path d="M196.7,123.48a.37.37,0,0,0,.29,0,3.12,3.12,0,0,1,2.83-.08.39.39,0,1,0,.38-.68,3.84,3.84,0,0,0-3.56.07.39.39,0,0,0,.06.72Z" style="fill: rgb(38, 50, 56); transform-origin: 198.422px 122.913px;" id="els5ey0vnajm" class="animable"></path><path d="M177,129.05c.42,6.14.21,17.26-4.48,20.73,0,0,.87,6.28,12,7.68,12.24,1.53,6.61-5.34,6.61-5.34-6.47-2.44-5.68-7.37-3.93-11.88Z" style="fill: rgb(255, 139, 123); transform-origin: 182.471px 143.366px;" id="elm4020kj35a" class="animable"></path><path d="M168.59,152.54a1.73,1.73,0,0,0,.06-.7c-.32-3.89,2.38-6,7.09-6.34,5-.37,12.06.17,16.4,3.83-1,1-.35,5-.35,5Z" style="fill: rgb(38, 50, 56); transform-origin: 180.365px 149.866px;" id="el7unvnjsoqeu" class="animable"></path><path d="M148.23,394.57l.08,0a.81.81,0,0,0,.42-.83.92.92,0,0,0-.34-.68c-.95-.8-3.69-.45-3.8-.44a.19.19,0,0,0-.16.14.18.18,0,0,0,.06.2C145.13,393.48,147.25,394.91,148.23,394.57Zm-3.12-1.64c.93-.07,2.46-.08,3,.39a.59.59,0,0,1,.21.4c0,.37-.15.44-.2.47C147.61,394.44,146.11,393.68,145.11,392.93Z" style="fill: rgb(251, 91, 23); transform-origin: 146.579px 393.578px;" id="el5w1v2bid3mm" class="animable"></path><path d="M146,392.68c1-.33,2-.9,2.15-1.48a.65.65,0,0,0-.32-.74,1.08,1.08,0,0,0-.86-.15c-1.21.25-2.47,2.29-2.52,2.37a.2.2,0,0,0,0,.2.2.2,0,0,0,.18.1A5.24,5.24,0,0,0,146,392.68Zm.92-1.95.13,0a.69.69,0,0,1,.56.1c.21.14.18.25.16.3-.16.53-1.71,1.27-2.76,1.46A5.07,5.07,0,0,1,146.92,390.73Z" style="fill: rgb(251, 91, 23); transform-origin: 146.298px 391.629px;" id="el395fg6vpkr5" class="animable"></path><path d="M209,408.24c1.06,0,2.08-.15,2.42-.62a.75.75,0,0,0,0-.86,1,1,0,0,0-.62-.45c-1.38-.38-4.26,1.26-4.38,1.33a.23.23,0,0,0-.1.21.22.22,0,0,0,.16.16A14.88,14.88,0,0,0,209,408.24Zm1.31-1.6a1.45,1.45,0,0,1,.37,0,.61.61,0,0,1,.39.28c.13.24.08.36,0,.43-.38.53-2.47.54-4,.33A8.71,8.71,0,0,1,210.27,406.64Z" style="fill: rgb(251, 91, 23); transform-origin: 208.937px 407.246px;" id="el7t4dbw54xh8" class="animable"></path><path d="M206.47,408l.08,0c1-.44,3-2.23,2.81-3.16,0-.22-.19-.49-.73-.55a1.45,1.45,0,0,0-1.08.34c-1.05.86-1.27,3.08-1.28,3.18a.18.18,0,0,0,.08.17A.19.19,0,0,0,206.47,408Zm2-3.35h.12c.35,0,.37.18.38.22.09.56-1.25,2-2.27,2.57a4.58,4.58,0,0,1,1.09-2.54A1.05,1.05,0,0,1,208.48,404.66Z" style="fill: rgb(251, 91, 23); transform-origin: 207.821px 406.143px;" id="elate4o56fwc6" class="animable"></path><polygon points="197.39 407.81 205.64 407.81 206.47 388.71 198.22 388.71 197.39 407.81" style="fill: rgb(255, 139, 123); transform-origin: 201.93px 398.26px;" id="eldsakv78lhh9" class="animable"></polygon><polygon points="135.71 390.39 143.35 392.49 153.15 374.58 145.5 372.48 135.71 390.39" style="fill: rgb(255, 139, 123); transform-origin: 144.43px 382.485px;" id="elv7vkshkpb3" class="animable"></polygon><path d="M144.5,391.66l-8.25-4.23a.72.72,0,0,0-.88.19l-4.79,5.78a1.21,1.21,0,0,0,.4,1.86c2.91,1.42,4.4,2,8,3.83,2.24,1.14,8.88,6.08,12.23,7s4.65-2.33,3.36-3a18.93,18.93,0,0,1-9.13-10.34A2,2,0,0,0,144.5,391.66Z" style="fill: rgb(38, 50, 56); transform-origin: 142.681px 396.804px;" id="elfuw8njx2wan" class="animable"></path><path d="M205.59,406.86h-9a.71.71,0,0,0-.7.56l-1.63,7.34a1.19,1.19,0,0,0,1.18,1.46c3.25-.05,7.95-.24,12-.24,4.77,0,8.9.26,14.5.26,3.39,0,4.33-3.43,2.91-3.74-6.46-1.41-11.73-1.56-17.3-5A3.88,3.88,0,0,0,205.59,406.86Z" style="fill: rgb(38, 50, 56); transform-origin: 209.859px 411.55px;" id="el8wh65wjksqi" class="animable"></path><path d="M170.14,166.33c-.86,2.21-1.81,4.37-2.76,6.4-1.65,3.51-3.28,6.57-4.48,8.68-1.06,1.91-1.75,3-1.75,3l-18-8.94s7.26-20.87,14.84-23.2C165.74,150,174,156.38,170.14,166.33Z" style="fill: rgb(251, 91, 23); transform-origin: 157.135px 168.111px;" id="elft8fwzf39q4" class="animable"></path><g id="elm71lcm6dqnc"><path d="M170.14,166.33c-.86,2.21-1.81,4.37-2.76,6.4-1.65,3.51-3.28,6.57-4.48,8.68-1.06,1.91-1.75,3-1.75,3l-18-8.94s7.26-20.87,14.84-23.2C165.74,150,174,156.38,170.14,166.33Z" style="opacity: 0.5; transform-origin: 157.135px 168.111px;" class="animable"></path></g><g id="elejnhjnq7fa6"><path d="M162.15,168.39c1.57,1.15,2.69,4.26,3.49,7.91-1,2-2,3.75-2.74,5.11-1.06,1.91-1.75,3-1.75,3l-2.07-1A40,40,0,0,1,162.15,168.39Z" style="opacity: 0.2; transform-origin: 162.36px 176.4px;" class="animable"></path></g><path d="M208.25,179.64c0,2.8-.07,5.89-.23,9.3-.4,9.25-1.41,20.78-3.35,35.11H160.55c-.3-6.77,3.95-39.82-2.58-71.74a116.33,116.33,0,0,1,14.78-1.86,162.78,162.78,0,0,1,18.75,0,84.61,84.61,0,0,1,12.69,2.29S208.26,157.33,208.25,179.64Z" style="fill: rgb(251, 91, 23); transform-origin: 183.11px 187.115px;" id="eluozlf36f9ze" class="animable"></path><g id="elxumnys02h0k"><path d="M208.25,179.64c0,2.8-.07,5.89-.23,9.3-.4,9.25-1.41,20.78-3.35,35.11H160.55c-.3-6.77,3.95-39.82-2.58-71.74a116.33,116.33,0,0,1,14.78-1.86,162.78,162.78,0,0,1,18.75,0,84.61,84.61,0,0,1,12.69,2.29S208.26,157.33,208.25,179.64Z" style="opacity: 0.5; transform-origin: 183.11px 187.115px;" class="animable"></path></g><path d="M209.66,160.48c.36.69,1.07,1.83,1.73,2.87s1.41,2.14,2.16,3.21c1.5,2.15,3.06,4.29,4.69,6.36a86.09,86.09,0,0,0,10.35,11.36c.91.8,1.82,1.55,2.73,2.2l.34.24.17.12.08.06,0,0a2.73,2.73,0,0,0-.6-.16,1.43,1.43,0,0,0-.94.08c-.16.18.6,0,1.33-.55a20.82,20.82,0,0,0,2.51-2.06,106.7,106.7,0,0,0,10-12.11l6.3,3a62,62,0,0,1-3.25,8.29q-.94,2-2.09,4a41.34,41.34,0,0,1-2.55,4,26.53,26.53,0,0,1-3.4,3.91,16.87,16.87,0,0,1-2.41,1.9,12.68,12.68,0,0,1-3.52,1.63,10.37,10.37,0,0,1-5.11.14,10.78,10.78,0,0,1-2.53-1l-.29-.15-.14-.08-.27-.16-.55-.32a47.4,47.4,0,0,1-4.07-2.75,83.27,83.27,0,0,1-13-12.73c-1.89-2.29-3.72-4.62-5.42-7.07-.86-1.22-1.7-2.46-2.51-3.77a41.88,41.88,0,0,1-2.45-4.42Z" style="fill: rgb(255, 139, 123); transform-origin: 223.73px 179.852px;" id="elso02hd7cril" class="animable"></path><path d="M244.32,172l4.74-7,5.75,8.46s-4.59,3.87-8.46,3.46Z" style="fill: rgb(255, 139, 123); transform-origin: 249.565px 170.975px;" id="eluj75wnpztej" class="animable"></path><polygon points="258.22 161.69 259.62 169.88 254.81 173.49 249.06 165.03 258.22 161.69" style="fill: rgb(255, 139, 123); transform-origin: 254.34px 167.59px;" id="elcs63ar6igce" class="animable"></polygon><path d="M191.44,161.13c.26,7.89,16.5,26.05,16.5,26.05L225.1,176s-5.44-10.18-12.51-17.55C201.94,147.33,191.13,151.67,191.44,161.13Z" style="fill: rgb(251, 91, 23); transform-origin: 208.267px 169.517px;" id="el07kr6dbyw4ue" class="animable"></path><g id="elbzhrc5cn6qe"><path d="M191.44,161.13c.26,7.89,16.5,26.05,16.5,26.05L225.1,176s-5.44-10.18-12.51-17.55C201.94,147.33,191.13,151.67,191.44,161.13Z" style="opacity: 0.5; transform-origin: 208.267px 169.517px;" class="animable"></path></g><g id="elpoze91ztdlf"><polygon points="206.46 388.71 206.04 398.56 197.79 398.56 198.21 388.71 206.46 388.71" style="opacity: 0.2; transform-origin: 202.125px 393.635px;" class="animable"></polygon></g><g id="eljnha83tnpso"><polygon points="145.5 372.48 153.15 374.59 148.1 383.82 140.44 381.71 145.5 372.48" style="opacity: 0.2; transform-origin: 146.795px 378.15px;" class="animable"></polygon></g><path d="M176.8,122.76c-.73,8.16-1.57,12.89,1.88,17.66,5.19,7.17,15.72,5,18.88-2.78,2.84-7,3.56-19.16-3.86-23.58A11.17,11.17,0,0,0,176.8,122.76Z" style="fill: rgb(255, 139, 123); transform-origin: 187.859px 128.623px;" id="el3q7rtg954h3" class="animable"></path><path d="M192,128.41c1.39-1.91,6.21-7.93,5-13.15-1.27-5.46-8.34-7.76-11.09-8,1.84,1.91-3.5.24-6.21,1.2,2.41,2.18-4.34-.08-6.22,2.44,4.91,1.45-2.67,3-4,4.86,2.37.34,2.56,1.2,2.9,2.47-.86,1.07-.37,19.95,5.77,22.45C183.93,143,194.4,136.71,192,128.41Z" style="fill: rgb(38, 50, 56); transform-origin: 183.337px 124.213px;" id="elo68gw621jto" class="animable"></path><path d="M195.69,109.68c1.09.93-1.1,1.24-3.78,0l.91,8.07c2.63,2.49,8.23,5.76,9.46-.19S198.32,110,195.69,109.68Z" style="fill: rgb(38, 50, 56); transform-origin: 197.188px 115.299px;" id="elr77yn58mrfl" class="animable"></path><path d="M189.2,126.73a7.45,7.45,0,0,0,.61,4.73c1,1.92,2.68,1.37,3.45-.43.69-1.61,1-4.56-.44-5.88S189.62,124.81,189.2,126.73Z" style="fill: rgb(255, 139, 123); transform-origin: 191.447px 128.604px;" id="el8ml62aufhpv" class="animable"></path><path d="M189,224.05s3.89,62.43-3.49,85.45C173.85,346,153,383.21,153,383.21l-14.9-4.48s16.38-39.32,21.77-70c4.85-27.59.66-62.11.66-84.65Z" style="fill: rgb(38, 50, 56); transform-origin: 164.062px 303.63px;" id="elj72f1klna" class="animable"></path><g id="el3hxzfiwu2a4"><path d="M189.66,238c-4.17-1.21-7.41-.75-8.26,2.95-2.2,9.67,4.4,35.18,7.69,46.85C190.43,271,190.12,251,189.66,238Z" style="opacity: 0.2; transform-origin: 185.507px 262.601px;" class="animable"></path></g><path d="M157.23,378.94c.06,0-3.89,4.61-3.89,4.61l-16.28-4.9,2.07-5.5Z" style="fill: rgb(251, 91, 23); transform-origin: 147.145px 378.35px;" id="elr96loqy4qc" class="animable"></path><path d="M204.68,224.05s12.43,52.67,13.3,77.83c1,28.22-8.86,94.77-8.86,94.77h-14s-1.72-67.07-2.34-92.77c-.68-28-17.13-79.83-17.13-79.83Z" style="fill: rgb(38, 50, 56); transform-origin: 196.851px 310.35px;" id="el0verhjhvvsl" class="animable"></path><path d="M211.8,391.09c.07,0-.78,5.8-.78,5.8H194l-.46-5.18Z" style="fill: rgb(251, 91, 23); transform-origin: 202.672px 393.99px;" id="elymf2d40ygyh" class="animable"></path></g><defs>     <filter id="active" height="200%">         <feMorphology in="SourceAlpha" result="DILATED" operator="dilate" radius="2"></feMorphology>                <feFlood flood-color="#32DFEC" flood-opacity="1" result="PINK"></feFlood>        <feComposite in="PINK" in2="DILATED" operator="in" result="OUTLINE"></feComposite>        <feMerge>            <feMergeNode in="OUTLINE"></feMergeNode>            <feMergeNode in="SourceGraphic"></feMergeNode>        </feMerge>    </filter>    <filter id="hover" height="200%">        <feMorphology in="SourceAlpha" result="DILATED" operator="dilate" radius="2"></feMorphology>                <feFlood flood-color="#ff0000" flood-opacity="0.5" result="PINK"></feFlood>        <feComposite in="PINK" in2="DILATED" operator="in" result="OUTLINE"></feComposite>        <feMerge>            <feMergeNode in="OUTLINE"></feMergeNode>            <feMergeNode in="SourceGraphic"></feMergeNode>        </feMerge>            <feColorMatrix type="matrix" values="0   0   0   0   0                0   1   0   0   0                0   0   0   0   0                0   0   0   1   0 "></feColorMatrix>    </filter></defs></svg>